<svg width="497" height="445" viewBox="0 0 497 445" fill="none" xmlns="http://www.w3.org/2000/svg">
<path d="M439.41 21.2275C445.212 21.2275 450.024 16.416 450.024 10.6138C450.024 4.81158 445.212 0 439.41 0C433.608 0 428.796 4.81158 428.796 10.6138C428.796 16.416 433.608 21.2275 439.41 21.2275ZM81.3723 11.3214C70.7585 11.3214 62.2675 19.8124 62.2675 30.4261C62.2675 41.0399 70.7585 49.5309 81.3723 49.5309C91.986 49.5309 100.477 41.0399 100.477 30.4261C100.477 19.8124 91.986 11.3214 81.3723 11.3214ZM155.669 365.114C148.593 365.114 142.932 370.774 142.932 377.85C142.932 384.926 148.593 390.587 155.669 390.587C162.745 390.587 168.405 384.926 168.405 377.85C168.405 370.774 162.745 365.114 155.669 365.114ZM488.234 366.529C486.677 366.529 485.403 367.803 485.403 369.359C485.403 370.916 486.677 372.19 488.234 372.19C489.79 372.19 491.064 370.916 491.064 369.359C491.064 367.803 489.79 366.529 488.234 366.529ZM19.8124 404.739C8.91557 404.739 0 413.654 0 424.551C0 435.448 8.91557 444.363 19.8124 444.363C30.7092 444.363 39.6247 435.448 39.6247 424.551C39.6247 413.654 30.7092 404.739 19.8124 404.739ZM430.919 225.012C394.549 225.012 365.114 254.448 365.114 290.817C365.114 327.187 394.549 356.623 430.919 356.623C467.289 356.623 496.725 327.187 496.725 290.817C496.725 254.448 467.289 225.012 430.919 225.012Z" fill="#404853"/>
<path d="M424.551 56.6071H233.503C229.54 56.6071 227.701 56.041 223.172 51.371C218.219 46.2764 208.879 36.7947 204.067 32.6907C199.256 28.5867 192.888 28.3037 189.208 28.3037H95.2408C85.4761 28.3037 79.8154 33.5398 80.8061 43.7291C81.7967 53.9183 94.1087 245.674 95.2408 259.118C96.2314 270.722 104.439 274.543 113.072 274.543H413.088C422.57 274.543 428.089 266.76 428.655 257.986C429.079 249.212 437.995 81.7971 438.702 70.1927C439.269 58.7299 432.476 56.6071 424.551 56.6071Z" fill="#545F6B"/>
<path d="M401.625 62.4082H119.299C109.534 62.4082 103.874 67.6443 104.864 77.9751C105.855 88.3058 117.035 252.749 118.167 266.193C119.157 277.797 127.365 281.76 135.998 281.76H390.587C400.069 281.76 405.588 273.976 406.154 265.202C406.578 256.428 415.494 88.5888 416.202 76.9845C416.626 65.2385 409.55 62.4082 401.625 62.4082Z" fill="#A2B7CE"/>
<path d="M401.625 65.2383H119.299C109.534 65.2383 103.874 70.4744 104.864 80.8051C105.855 91.1359 117.035 255.579 118.167 269.023C119.157 280.627 127.365 284.59 135.998 284.59H390.587C400.069 284.59 405.588 276.806 406.154 268.032C406.578 259.258 415.494 91.4189 416.202 79.8145C416.626 68.0686 409.55 65.2383 401.625 65.2383Z" fill="#D6E1ED"/>
<g opacity="0.1686">
<g opacity="0.1686">
<path opacity="0.1686" d="M401.625 85.0508H119.299C109.534 85.0508 103.874 90.2869 104.864 100.618C105.855 110.948 117.035 258.409 118.167 271.853C119.157 283.458 127.365 287.42 135.998 287.42H390.587C400.069 287.42 405.588 279.637 406.154 270.863C406.578 262.088 415.494 111.231 416.202 99.627C416.909 88.0226 409.55 85.0508 401.625 85.0508Z" fill="#576778"/>
</g>
</g>
<g opacity="0.4196">
<g opacity="0.4196">
<path opacity="0.4196" d="M407.71 56.1826H260.25C257.136 56.1826 254.589 58.7299 254.589 61.8433V103.308C254.589 106.421 257.136 108.968 260.25 108.968H407.852C410.965 108.968 413.512 106.421 413.512 103.308V61.8433C413.371 58.7299 410.965 56.1826 407.71 56.1826Z" fill="#191A20"/>
</g>
</g>
<path d="M410.399 50.9463H257.561C254.448 50.9463 251.9 53.4936 251.9 56.607V98.0714C251.9 101.185 254.448 103.732 257.561 103.732H410.399C413.513 103.732 416.06 101.185 416.06 98.0714V56.607C416.06 53.4936 413.513 50.9463 410.399 50.9463Z" fill="#D52F2F"/>
<path d="M283.459 72.0322C279.78 72.0322 276.949 75.0041 276.949 78.6835C276.949 82.363 279.921 85.3348 283.459 85.3348C287.138 85.3348 289.969 82.363 289.969 78.6835C290.11 75.0041 287.138 72.0322 283.459 72.0322ZM303.271 72.0322C299.592 72.0322 296.62 75.0041 296.62 78.6835C296.62 82.363 299.592 85.3348 303.271 85.3348C306.951 85.3348 309.923 82.363 309.923 78.6835C309.781 75.0041 306.951 72.0322 303.271 72.0322ZM322.942 72.0322C319.263 72.0322 316.291 75.0041 316.291 78.6835C316.291 82.363 319.263 85.3348 322.942 85.3348C326.622 85.3348 329.594 82.363 329.594 78.6835C329.594 75.0041 326.622 72.0322 322.942 72.0322ZM342.755 72.0322C339.075 72.0322 336.245 75.0041 336.245 78.6835C336.245 82.363 339.217 85.3348 342.755 85.3348C346.434 85.3348 349.264 82.363 349.264 78.6835C349.264 75.0041 346.434 72.0322 342.755 72.0322ZM362.425 72.0322C358.746 72.0322 355.774 75.0041 355.774 78.6835C355.774 82.363 358.746 85.3348 362.425 85.3348C366.105 85.3348 369.077 82.363 369.077 78.6835C369.077 75.0041 366.105 72.0322 362.425 72.0322ZM382.238 72.0322C378.558 72.0322 375.728 75.0041 375.728 78.6835C375.728 82.363 378.7 85.3348 382.238 85.3348C385.776 85.3348 388.748 82.363 388.748 78.6835C388.889 75.0041 385.917 72.0322 382.238 72.0322Z" fill="white"/>
<g opacity="0.2392">
<g opacity="0.2392">
<path opacity="0.2392" d="M410.399 79.249H257.561C254.448 79.249 251.9 81.7963 251.9 84.9097V126.374C251.9 129.488 254.448 132.035 257.561 132.035H410.399C413.513 132.035 416.06 129.488 416.06 126.374V84.9097C416.06 81.7963 413.513 79.249 410.399 79.249Z" fill="#2D2F38"/>
</g>
</g>
<g opacity="0.4196">
<g opacity="0.4196">
<path opacity="0.4196" d="M269.024 78.8252H173.783C170.669 78.8252 168.122 81.3725 168.122 84.4859V107.553C168.122 110.667 170.669 113.214 173.783 113.214H269.024C272.137 113.214 274.684 110.667 274.684 107.553V84.4859C274.684 81.3725 272.279 78.8252 269.024 78.8252Z" fill="#191A20"/>
</g>
</g>
<path d="M271.712 73.5889H171.235C168.122 73.5889 165.575 76.1362 165.575 79.2495V102.317C165.575 105.43 168.122 107.977 171.235 107.977H271.712C274.826 107.977 277.373 105.43 277.373 102.317V79.2495C277.373 76.1362 274.826 73.5889 271.712 73.5889Z" fill="#505B67"/>
<path d="M187.227 83.4951C184.679 83.4951 182.557 85.7594 182.557 88.4482C182.557 91.137 184.679 93.4013 187.227 93.4013C189.774 93.4013 191.897 91.137 191.897 88.4482C191.897 85.7594 189.916 83.4951 187.227 83.4951ZM201.52 83.4951C198.831 83.4951 196.708 85.7594 196.708 88.4482C196.708 91.137 198.831 93.4013 201.52 93.4013C204.209 93.4013 206.331 91.137 206.331 88.4482C206.331 85.7594 204.209 83.4951 201.52 83.4951ZM215.813 83.4951C213.266 83.4951 211.143 85.7594 211.143 88.4482C211.143 91.137 213.266 93.4013 215.813 93.4013C218.36 93.4013 220.483 91.137 220.483 88.4482C220.483 85.7594 218.36 83.4951 215.813 83.4951ZM229.965 83.4951C227.276 83.4951 225.153 85.7594 225.153 88.4482C225.153 91.137 227.276 93.4013 229.965 93.4013C232.654 93.4013 234.776 91.137 234.776 88.4482C234.776 85.7594 232.654 83.4951 229.965 83.4951ZM244.258 83.4951C241.569 83.4951 239.446 85.7594 239.446 88.4482C239.446 91.137 241.569 93.4013 244.258 93.4013C246.947 93.4013 249.07 91.137 249.07 88.4482C249.07 85.7594 246.805 83.4951 244.258 83.4951ZM258.551 83.4951C256.004 83.4951 253.881 85.7594 253.881 88.4482C253.881 91.137 256.004 93.4013 258.551 93.4013C261.099 93.4013 263.221 91.137 263.221 88.4482C263.221 85.7594 261.099 83.4951 258.551 83.4951Z" fill="white"/>
<g opacity="0.2392">
<g opacity="0.2392">
<path opacity="0.2392" d="M271.712 87.7402H171.235C168.122 87.7402 165.575 90.2875 165.575 93.4009V134.865C165.575 137.979 168.122 140.526 171.235 140.526H271.712C274.826 140.526 277.373 137.979 277.373 134.865V93.4009C277.373 90.2875 274.826 87.7402 271.712 87.7402Z" fill="#2D2F38"/>
</g>
</g>
<path d="M415.777 90.7119H105.147C95.3824 90.7119 89.7217 95.948 90.7123 106.279C91.7029 116.468 102.883 259.825 104.015 273.269C105.006 284.873 113.214 288.836 121.846 288.836H404.738C414.22 288.836 419.739 281.052 420.305 272.278C420.73 263.504 429.645 116.893 430.353 105.288C431.061 93.6838 423.702 90.7119 415.777 90.7119Z" fill="#A2B7CE"/>
<path d="M415.777 93.542H105.147C95.3824 93.542 89.7217 98.7781 90.7123 109.109C91.7029 119.298 102.883 262.655 104.015 276.099C105.006 287.703 113.214 291.666 121.846 291.666H404.738C414.22 291.666 419.739 283.882 420.305 275.108C420.73 266.334 429.645 119.723 430.353 108.118C431.061 96.5139 423.702 93.542 415.777 93.542Z" fill="#D6E1ED"/>
<path d="M415.777 113.354H105.147C95.3824 113.354 89.7217 118.591 90.7123 128.921C91.7029 139.111 102.883 262.655 104.015 276.099C105.006 287.703 113.214 291.666 121.846 291.666H404.738C414.22 291.666 419.739 283.882 420.305 275.108C420.73 266.334 429.645 139.535 430.353 127.931C431.061 116.326 423.702 113.354 415.777 113.354Z" fill="#C1D0E0"/>
<path d="M429.928 121.705H90.9952C81.2305 121.705 75.5698 126.941 76.5605 137.272C77.5511 147.461 88.7309 269.732 89.8631 283.176C90.8537 294.78 99.0617 298.743 107.694 298.743H418.748C428.23 298.743 433.749 290.959 434.315 282.185C434.74 273.411 443.655 147.886 444.363 136.281C444.929 124.535 437.853 121.705 429.928 121.705Z" fill="#8291A4"/>
<path d="M429.928 125.95H90.9952C81.2305 125.95 75.5698 131.186 76.5605 141.517C77.5511 151.706 88.7309 273.977 89.8631 287.421C90.8537 299.025 99.0617 302.988 107.694 302.988H418.748C428.23 302.988 433.749 295.204 434.315 286.43C434.74 277.656 443.655 152.131 444.363 140.526C444.929 128.781 437.853 125.95 429.928 125.95Z" fill="#606B77"/>
<path d="M108.544 41.0403C108.544 40.4743 108.968 40.0497 109.959 40.0497C111.232 40.0497 112.648 40.4743 113.78 41.4649L115.619 39.0591C114.204 37.7855 112.364 37.2194 110.242 37.2194C106.845 37.2194 105.006 39.2006 105.006 41.4649C105.006 46.5595 112.506 45.1443 112.506 46.9841C112.506 47.5501 111.798 48.1162 110.666 48.1162C108.827 48.1162 107.411 47.2671 106.421 46.418L104.581 48.9653C105.855 50.2389 107.836 51.088 110.383 51.088C113.921 51.088 115.902 49.3898 115.902 46.701C116.044 41.6064 108.544 42.7385 108.544 41.0403ZM122.412 40.8988C119.44 40.8988 117.318 43.1631 117.318 45.8519C117.318 48.9653 119.582 50.9465 122.554 50.9465C123.969 50.9465 125.667 50.522 126.516 49.6729L125.243 47.8332C124.676 48.3992 123.544 48.6823 122.837 48.6823C121.422 48.6823 120.572 47.8332 120.431 46.9841H127.224V46.2765C127.224 42.8801 125.243 40.8988 122.412 40.8988ZM120.431 44.8613C120.572 44.1537 120.997 43.1631 122.412 43.1631C123.827 43.1631 124.252 44.1537 124.393 44.8613H120.431ZM133.875 43.5877C134.724 43.5877 135.29 44.0122 135.715 44.4368L137.696 42.597C137.13 41.7479 135.856 40.8988 133.734 40.8988C130.762 40.8988 128.497 42.8801 128.497 45.8519C128.497 48.8238 130.762 50.9465 133.734 50.9465C135.856 50.9465 137.13 49.9559 137.696 49.2483L135.715 47.4086C135.29 47.9747 134.724 48.3992 133.875 48.3992C132.601 48.3992 131.611 47.5501 131.611 45.9934C131.611 44.4368 132.601 43.5877 133.875 43.5877ZM145.904 47.2671C145.479 47.6916 144.913 48.2577 144.064 48.2577C143.074 48.2577 142.508 47.8332 142.508 46.701V41.0403H139.394V47.8332C139.394 49.5314 140.385 50.805 142.508 50.805C144.064 50.805 145.196 50.0974 145.762 49.3898V50.522H148.876V41.0403H145.762V47.2671H145.904ZM154.678 41.0403H151.565V50.6635H154.678V44.5783C155.103 44.0122 156.093 43.7292 156.942 43.7292C157.225 43.7292 157.508 43.7292 157.65 43.8707V40.8988C156.518 40.8988 155.244 41.6064 154.678 42.314V41.0403ZM159.348 50.6635H162.461V41.0403H159.348V50.6635ZM160.905 36.6533C159.914 36.6533 159.207 37.3609 159.207 38.3515C159.207 39.3421 159.914 40.0497 160.905 40.0497C161.895 40.0497 162.603 39.2006 162.603 38.3515C162.745 37.5024 161.895 36.6533 160.905 36.6533ZM169.537 48.1162C168.971 48.1162 168.688 47.6916 168.688 47.1256V43.5877H170.669V41.0403H168.688V38.493H165.716V41.0403H164.16V43.7292H165.716V48.1162C165.716 49.9559 166.707 50.9465 168.688 50.9465C169.82 50.9465 170.528 50.6635 170.953 50.3805L170.386 48.1162C170.245 48.1162 169.962 48.1162 169.537 48.1162ZM178.877 41.0403L176.755 47.1256L174.632 41.0403H171.236L175.057 50.805L174.773 51.3711C174.632 51.7956 174.207 51.9371 173.5 51.9371C173.217 51.9371 172.934 51.9371 172.792 51.7956L172.368 54.4845C172.651 54.626 173.358 54.626 173.641 54.626C175.481 54.626 176.896 54.0599 177.745 52.0787L182.132 41.1819H178.877V41.0403Z" fill="#363C45"/>
<g opacity="0.3686">
<g opacity="0.3686">
<path opacity="0.3686" d="M304.261 110.383C290.393 110.383 288.694 121.704 288.694 121.704H295.77C295.77 121.704 298.601 114.628 304.261 114.628C309.922 114.628 314.168 120.714 314.168 127.365V188.217C314.168 195.859 309.639 199.539 304.261 199.539C298.884 199.539 295.77 195.576 295.77 189.632V138.686C295.77 133.733 287.279 133.45 287.279 138.686V189.632C287.279 196.284 290.817 206.614 304.261 206.614C317.705 206.614 322.659 195.576 322.659 188.217V127.365C322.659 119.581 318.13 110.383 304.261 110.383Z" fill="#2E353D"/>
</g>
</g>
<ellipse cx="260.391" cy="219.352" rx="55.1916" ry="53.7764" fill="#3F4751"/>
<path d="M266.977 213.15C264.194 216.604 259.155 227.832 256.688 233.414C264.667 224.699 269.339 227.954 279.891 233.414C291.032 239.178 304.417 234.048 306.506 224.437C309.394 211.155 301.467 203.424 288.29 202.441C276.322 201.549 270.18 209.173 266.978 213.149L266.977 213.15Z" fill="#56616F"/>
<path d="M252.397 225.056C255.18 221.602 260.219 210.374 262.687 204.792C254.707 213.507 250.035 210.252 239.483 204.792C228.342 199.028 214.957 204.158 212.868 213.769C209.98 227.051 217.907 234.782 231.084 235.765C243.052 236.657 249.194 229.033 252.396 225.057L252.397 225.056Z" fill="#4B5460"/>
<path d="M304.262 108.969C290.393 108.969 288.695 121.705 288.695 121.705H295.771C295.771 121.705 298.601 116.045 304.262 116.045C309.923 116.045 314.168 120.715 314.168 127.366V183.973C314.168 191.615 309.639 195.294 304.262 195.294C298.884 195.294 295.771 191.332 295.771 185.388V135.857C295.771 130.904 287.28 130.621 287.28 135.857V185.388C287.28 192.039 290.818 202.37 304.262 202.37C317.706 202.37 322.659 191.332 322.659 183.973V127.366C322.659 119.583 318.13 108.969 304.262 108.969Z" fill="#9BADC1"/>
</svg>
