<svg width="511" height="542" viewBox="0 0 511 542" fill="none" xmlns="http://www.w3.org/2000/svg">
<path d="M242.339 475.69C367.468 475.69 468.905 374.187 468.905 248.976C468.905 123.766 367.468 22.2627 242.339 22.2627C117.211 22.2627 15.7734 123.766 15.7734 248.976C15.7734 374.187 117.211 475.69 242.339 475.69Z" fill="#31343E"/>
<path d="M362.192 374.651C427.991 308.809 427.991 202.058 362.192 136.216C296.393 70.3745 189.712 70.3745 123.913 136.216C58.1141 202.058 58.1141 308.809 123.913 374.651C189.712 440.493 296.393 440.493 362.192 374.651Z" fill="#3A3E4A"/>
<path d="M362.192 368.912C427.991 303.07 427.991 196.319 362.192 130.477C296.393 64.6352 189.712 64.6352 123.913 130.477C58.1141 196.319 58.1141 303.07 123.913 368.912C189.712 434.753 296.393 434.753 362.192 368.912Z" fill="#262830"/>
<g opacity="0.4118">
<g opacity="0.4118">
<path opacity="0.4118" d="M193.585 439.818C255.358 439.818 305.434 359.515 305.434 260.456C305.434 161.397 255.358 81.0938 193.585 81.0938C131.813 81.0938 81.7363 161.397 81.7363 260.456C81.7363 359.515 131.813 439.818 193.585 439.818Z" fill="#262830"/>
</g>
</g>
<path d="M272.481 413.15C297.359 402.838 309.172 374.299 298.868 349.406C288.563 324.512 260.042 312.691 235.165 323.002C210.287 333.314 198.474 361.853 208.779 386.747C219.083 411.64 247.604 423.461 272.481 413.15Z" fill="#E4B22D"/>
<path d="M282.863 396.326C298.711 380.468 298.711 354.757 282.863 338.899C267.015 323.041 241.321 323.041 225.473 338.899C209.625 354.757 209.625 380.468 225.473 396.326C241.321 412.184 267.015 412.184 282.863 396.326Z" fill="#D4A527"/>
<path d="M256.536 351.571H252.664L237.895 385.148H243.487L246.212 379.552H251.23V385.148H257.827V379.552H262.846L265.57 385.148H271.162L256.536 351.571ZM248.936 373.956L254.529 360.037L260.121 373.956H248.936Z" fill="#AD733B"/>
<path d="M326.226 391.032C350.381 391.032 369.962 371.438 369.962 347.267C369.962 323.097 350.381 303.503 326.226 303.503C302.071 303.503 282.49 323.097 282.49 347.267C282.49 371.438 302.071 391.032 326.226 391.032Z" fill="#E4B22D"/>
<path d="M326.423 383.893C346.538 383.893 362.845 367.575 362.845 347.446C362.845 327.318 346.538 311 326.423 311C306.307 311 290 327.318 290 347.446C290 367.575 306.307 383.893 326.423 383.893Z" fill="#D4A527"/>
<path d="M330.715 343.798C329.17 345.656 326.37 351.695 325 354.697C329.432 350.01 332.027 351.761 337.888 354.697C344.076 357.797 351.511 355.038 352.671 349.869C354.275 342.726 349.872 338.567 342.553 338.039C335.906 337.559 332.494 341.66 330.716 343.798L330.715 343.798Z" fill="#AD733B"/>
<path d="M322.285 350.202C323.83 348.344 326.63 342.305 328 339.303C323.568 343.99 320.973 342.239 315.112 339.303C308.924 336.203 301.489 338.962 300.329 344.131C298.725 351.274 303.128 355.433 310.447 355.961C317.094 356.441 320.506 352.34 322.284 350.202L322.285 350.202Z" fill="#AD733B"/>
<path d="M308.962 432.624C330.332 426.702 342.858 404.566 336.939 383.182C331.021 361.799 308.899 349.265 287.529 355.187C266.16 361.109 253.634 383.245 259.552 404.629C265.471 426.013 287.592 438.547 308.962 432.624Z" fill="#E4B22D"/>
<path d="M304.446 426.34C322.566 422.849 334.427 405.319 330.938 387.187C327.449 369.055 309.93 357.186 291.81 360.678C273.69 364.169 261.829 381.699 265.318 399.831C268.807 417.963 286.326 429.832 304.446 426.34Z" fill="#D4A527"/>
<path d="M87.4722 213.104H76.0005C72.8458 213.104 70.2646 215.687 70.2646 218.844V260.456C70.2646 263.613 72.8458 266.196 76.0005 266.196H87.4722C90.6269 266.196 93.208 263.613 93.208 260.456V218.844C93.208 215.687 90.6269 213.104 87.4722 213.104Z" fill="#E84649"/>
<path d="M87.4722 215.974H76.0005C72.8458 215.974 70.2646 218.556 70.2646 221.713V277.674C70.2646 280.831 72.8458 283.414 76.0005 283.414H87.4722C90.6269 283.414 93.208 280.831 93.208 277.674V221.713C93.208 218.556 90.6269 215.974 87.4722 215.974Z" fill="#C9292C"/>
<path d="M210.793 81.0938C210.649 81.0938 177.525 81.0938 177.525 81.0938H177.381C125.328 81.6677 83.1699 156.856 83.1699 249.694C83.1699 342.388 125.185 417.577 176.951 418.294C177.094 418.294 210.076 418.294 210.219 418.294C210.362 418.294 210.506 418.294 210.649 418.294C262.989 418.294 305.291 342.819 305.291 249.694C305.291 156.569 263.132 81.0938 210.793 81.0938Z" fill="#505B67"/>
<path d="M176.378 418.294C228.647 418.294 271.019 342.809 271.019 249.694C271.019 156.579 228.647 81.0938 176.378 81.0938C124.109 81.0938 81.7363 156.579 81.7363 249.694C81.7363 342.809 124.109 418.294 176.378 418.294Z" fill="#606B77"/>
<path d="M270.876 239.506C270.589 229.175 269.729 219.131 268.295 209.373C268.295 209.086 268.151 208.656 268.151 208.656L147.412 410.259C147.412 410.259 147.699 410.402 147.842 410.546C153.148 413.559 158.74 415.711 164.476 417.003C164.619 417.003 165.05 417.146 165.05 417.146L270.876 240.224C270.876 240.224 270.876 239.793 270.876 239.506ZM256.68 160.443C245.495 128.732 228.717 104.052 208.642 91.138C208.499 90.9945 208.212 90.851 208.212 90.851L87.042 305.368C87.042 305.368 87.042 305.655 87.1854 305.942C94.0684 340.523 107.117 369.938 123.895 390.027C124.038 390.17 124.182 390.314 124.182 390.314L256.967 161.161C256.967 161.017 256.823 160.73 256.68 160.443ZM176.378 81.0938C124.899 81.0938 83.0269 154.273 81.7363 245.533C81.7363 245.82 81.7363 246.25 81.7363 246.25L177.525 81.0938C177.525 81.0938 176.808 81.0938 176.378 81.0938Z" fill="#636F7B"/>
<g opacity="0.6118">
<g opacity="0.6118">
<path opacity="0.6118" d="M180.536 211.669C167.2 211.669 156.302 231.327 156.302 255.433C156.302 279.54 167.2 299.198 180.536 299.198C193.872 299.198 204.77 279.54 204.77 255.433C204.77 231.327 194.015 211.669 180.536 211.669ZM180.679 279.109C173.509 279.109 167.773 268.778 167.773 256.151C167.773 243.524 173.509 233.192 180.679 233.192C187.849 233.192 193.585 243.524 193.585 256.151C193.585 268.778 187.849 279.109 180.679 279.109Z" fill="#363E46"/>
</g>
</g>
<path d="M170.785 211.669C170.785 211.669 162.325 211.669 162.181 211.669C148.846 211.812 138.091 231.327 138.091 255.433C138.091 279.54 148.846 299.054 162.181 299.198C162.181 299.198 170.642 299.198 170.785 299.198H170.929C184.264 299.198 195.163 279.54 195.163 255.433C195.163 231.327 184.121 211.669 170.785 211.669ZM168.491 277.674C162.612 277.674 157.736 267.773 157.736 255.433C157.736 243.093 162.612 233.192 168.491 233.192C174.37 233.192 179.246 243.093 179.246 255.433C179.246 267.773 174.37 277.674 168.491 277.674Z" fill="#9AAABD"/>
<path d="M161.894 211.669C148.558 211.669 137.66 231.327 137.66 255.433C137.66 279.54 148.558 299.198 161.894 299.198C175.23 299.198 186.128 279.54 186.128 255.433C186.128 231.327 175.373 211.669 161.894 211.669ZM162.038 279.109C154.868 279.109 149.132 268.778 149.132 256.151C149.132 243.524 154.868 233.192 162.038 233.192C169.207 233.192 174.943 243.524 174.943 256.151C174.943 268.778 169.207 279.109 162.038 279.109Z" fill="#D6E1EE"/>
<path d="M496.151 198.755H447.396C439.509 198.755 433.057 205.212 433.057 213.104V289.153C433.057 297.045 439.509 303.502 447.396 303.502H496.151C504.038 303.502 510.491 297.045 510.491 289.153V213.104C510.491 205.212 504.038 198.755 496.151 198.755Z" fill="#768290"/>
<path d="M496.151 201.625H447.396C439.509 201.625 433.057 208.082 433.057 215.974V292.023C433.057 299.915 439.509 306.372 447.396 306.372H496.151C504.038 306.372 510.491 299.915 510.491 292.023V215.974C510.491 208.082 504.038 201.625 496.151 201.625Z" fill="#606B78"/>
<path d="M497.585 208.8H445.962C442.808 208.8 440.227 211.383 440.227 214.539V223.149C440.227 226.306 442.808 228.888 445.962 228.888H497.585C500.74 228.888 503.321 226.306 503.321 223.149V214.539C503.321 211.383 500.74 208.8 497.585 208.8Z" fill="#505B67"/>
<path d="M457.434 215.974C455.857 215.974 454.566 217.265 454.566 218.843C454.566 220.422 455.857 221.713 457.434 221.713C459.012 221.713 460.302 220.422 460.302 218.843C460.302 217.265 459.012 215.974 457.434 215.974ZM467.472 215.974C465.895 215.974 464.604 217.265 464.604 218.843C464.604 220.422 465.895 221.713 467.472 221.713C469.049 221.713 470.34 220.422 470.34 218.843C470.34 217.265 469.049 215.974 467.472 215.974ZM477.51 215.974C475.932 215.974 474.642 217.265 474.642 218.843C474.642 220.422 475.932 221.713 477.51 221.713C479.087 221.713 480.378 220.422 480.378 218.843C480.378 217.265 479.087 215.974 477.51 215.974ZM487.548 215.974C485.97 215.974 484.68 217.265 484.68 218.843C484.68 220.422 485.97 221.713 487.548 221.713C489.125 221.713 490.415 220.422 490.415 218.843C490.415 217.265 489.125 215.974 487.548 215.974Z" fill="#CCD8E5"/>
<path d="M453.132 237.497H447.396C445.819 237.497 444.528 238.788 444.528 240.367V246.106C444.528 247.685 445.819 248.976 447.396 248.976H453.132C454.709 248.976 456 247.685 456 246.106V240.367C456 238.788 454.709 237.497 453.132 237.497ZM467.472 237.497H461.736C460.159 237.497 458.868 238.788 458.868 240.367V246.106C458.868 247.685 460.159 248.976 461.736 248.976H467.472C469.049 248.976 470.34 247.685 470.34 246.106V240.367C470.34 238.788 469.049 237.497 467.472 237.497ZM481.811 237.497H476.075C474.498 237.497 473.208 238.788 473.208 240.367V246.106C473.208 247.685 474.498 248.976 476.075 248.976H481.811C483.389 248.976 484.679 247.685 484.679 246.106V240.367C484.679 238.788 483.389 237.497 481.811 237.497ZM496.151 237.497H490.415C488.838 237.497 487.547 238.788 487.547 240.367V246.106C487.547 247.685 488.838 248.976 490.415 248.976H496.151C497.728 248.976 499.019 247.685 499.019 246.106V240.367C499.019 238.788 497.728 237.497 496.151 237.497ZM453.132 251.846H447.396C445.819 251.846 444.528 253.137 444.528 254.716V260.455C444.528 262.034 445.819 263.325 447.396 263.325H453.132C454.709 263.325 456 262.034 456 260.455V254.716C456 253.137 454.709 251.846 453.132 251.846ZM467.472 251.846H461.736C460.159 251.846 458.868 253.137 458.868 254.716V260.455C458.868 262.034 460.159 263.325 461.736 263.325H467.472C469.049 263.325 470.34 262.034 470.34 260.455V254.716C470.34 253.137 469.049 251.846 467.472 251.846ZM481.811 251.846H476.075C474.498 251.846 473.208 253.137 473.208 254.716V260.455C473.208 262.034 474.498 263.325 476.075 263.325H481.811C483.389 263.325 484.679 262.034 484.679 260.455V254.716C484.679 253.137 483.389 251.846 481.811 251.846ZM496.151 251.846H490.415C488.838 251.846 487.547 253.137 487.547 254.716V260.455C487.547 262.034 488.838 263.325 490.415 263.325H496.151C497.728 263.325 499.019 262.034 499.019 260.455V254.716C499.019 253.137 497.728 251.846 496.151 251.846ZM453.132 266.195H447.396C445.819 266.195 444.528 267.486 444.528 269.065V274.804C444.528 276.383 445.819 277.674 447.396 277.674H453.132C454.709 277.674 456 276.383 456 274.804V269.065C456 267.486 454.709 266.195 453.132 266.195ZM467.472 266.195H461.736C460.159 266.195 458.868 267.486 458.868 269.065V274.804C458.868 276.383 460.159 277.674 461.736 277.674H467.472C469.049 277.674 470.34 276.383 470.34 274.804V269.065C470.34 267.486 469.049 266.195 467.472 266.195ZM481.811 266.195H476.075C474.498 266.195 473.208 267.486 473.208 269.065V274.804C473.208 276.383 474.498 277.674 476.075 277.674H481.811C483.389 277.674 484.679 276.383 484.679 274.804V269.065C484.679 267.486 483.389 266.195 481.811 266.195ZM496.151 266.195H490.415C488.838 266.195 487.547 267.486 487.547 269.065V274.804C487.547 276.383 488.838 277.674 490.415 277.674H496.151C497.728 277.674 499.019 276.383 499.019 274.804V269.065C499.019 267.486 497.728 266.195 496.151 266.195ZM453.132 280.544H447.396C445.819 280.544 444.528 281.835 444.528 283.414V289.153C444.528 290.732 445.819 292.023 447.396 292.023H453.132C454.709 292.023 456 290.732 456 289.153V283.414C456 281.835 454.709 280.544 453.132 280.544ZM467.472 280.544H461.736C460.159 280.544 458.868 281.835 458.868 283.414V289.153C458.868 290.732 460.159 292.023 461.736 292.023H467.472C469.049 292.023 470.34 290.732 470.34 289.153V283.414C470.34 281.835 469.049 280.544 467.472 280.544ZM481.811 280.544H476.075C474.498 280.544 473.208 281.835 473.208 283.414V289.153C473.208 290.732 474.498 292.023 476.075 292.023H481.811C483.389 292.023 484.679 290.732 484.679 289.153V283.414C484.679 281.835 483.389 280.544 481.811 280.544ZM496.151 280.544H490.415C488.838 280.544 487.547 281.835 487.547 283.414V289.153C487.547 290.732 488.838 292.023 490.415 292.023H496.151C497.728 292.023 499.019 290.732 499.019 289.153V283.414C499.019 281.835 497.728 280.544 496.151 280.544Z" fill="#6A7786"/>
<path d="M445.245 22.2627C451.125 22.2627 456 17.384 456 11.501C456 5.6179 451.125 0.739258 445.245 0.739258C439.366 0.739258 434.491 5.6179 434.491 11.501C434.491 17.384 439.366 22.2627 445.245 22.2627ZM82.4528 12.2184C71.6981 12.2184 63.0943 20.8278 63.0943 31.5895C63.0943 42.3512 71.6981 50.9606 82.4528 50.9606C93.2075 50.9606 101.811 42.3512 101.811 31.5895C101.811 20.8278 93.2075 12.2184 82.4528 12.2184ZM468.906 535.955C467.328 535.955 466.038 537.247 466.038 538.825C466.038 540.404 467.328 541.695 468.906 541.695C470.483 541.695 471.774 540.404 471.774 538.825C471.774 537.247 470.483 535.955 468.906 535.955ZM20.0755 411.119C9.03396 411.119 0 420.159 0 431.208C0 442.257 9.03396 451.297 20.0755 451.297C31.117 451.297 40.1509 442.257 40.1509 431.208C40.1509 420.159 31.117 411.119 20.0755 411.119ZM410.83 392.466C373.977 392.466 344.151 422.312 344.151 459.188C344.151 496.065 373.977 525.911 410.83 525.911C447.683 525.911 477.509 496.065 477.509 459.188C477.509 422.312 447.683 392.466 410.83 392.466Z" fill="#404853"/>
<path d="M302.715 390.798C301.17 392.656 298.37 398.695 297 401.697C301.432 397.01 304.027 398.761 309.888 401.697C316.076 404.797 323.511 402.038 324.671 396.869C326.275 389.726 321.872 385.567 314.553 385.039C307.906 384.559 304.494 388.66 302.716 390.798L302.715 390.798Z" fill="#AD733B"/>
<path d="M294.285 397.202C295.83 395.344 298.63 389.305 300 386.303C295.568 390.99 292.973 389.239 287.112 386.303C280.924 383.203 273.489 385.962 272.329 391.131C270.725 398.274 275.128 402.433 282.447 402.961C289.094 403.441 292.506 399.34 294.284 397.202L294.285 397.202Z" fill="#AD733B"/>
</svg>
