<svg width="1221" height="1383" viewBox="0 0 1221 1383" fill="none" xmlns="http://www.w3.org/2000/svg">
<path d="M82.4798 1328C67.4501 1328 54.9865 1340.47 54.9865 1355.5C54.9865 1370.53 67.4501 1383 82.4798 1383C97.5094 1383 109.973 1370.53 109.973 1355.5C109.973 1340.47 97.5094 1328 82.4798 1328ZM980.593 902.667C953.1 902.667 931.105 924.667 931.105 952.167C931.105 979.667 953.1 1001.67 980.593 1001.67C1008.09 1001.67 1030.08 979.667 1030.08 952.167C1030.08 924.667 1008.09 902.667 980.593 902.667ZM21.9946 15.3337C26.027 15.3337 29.3261 12.0337 29.3261 8.00033C29.3261 3.96699 26.027 0.666992 21.9946 0.666992C17.9623 0.666992 14.6631 3.96699 14.6631 8.00033C14.6631 12.0337 17.9623 15.3337 21.9946 15.3337ZM1169.38 231.667C1141.15 231.667 1118.06 254.767 1118.06 283C1118.06 311.234 1141.15 334.334 1169.38 334.334C1197.61 334.334 1220.7 311.234 1220.7 283C1220.7 254.767 1197.61 231.667 1169.38 231.667ZM170.458 41.0003C76.248 41.0003 0 117.267 0 211.5C0 305.734 76.248 382 170.458 382C264.668 382 340.916 305.734 340.916 211.5C340.916 117.267 264.668 41.0003 170.458 41.0003Z" fill="#404853"/>
<g opacity="0.4196">
<g opacity="0.4196">
<path opacity="0.4196" d="M634.545 696.234H252.572C244.508 696.234 237.909 702.834 237.909 710.901V818.334C237.909 826.401 244.508 833.001 252.572 833.001H634.912C642.977 833.001 649.575 826.401 649.575 818.334V710.901C649.208 702.834 642.977 696.234 634.545 696.234Z" fill="#191A20"/>
</g>
</g>
<path d="M641.509 682.667H245.606C237.542 682.667 230.943 689.267 230.943 697.334V804.767C230.943 812.834 237.542 819.434 245.606 819.434H641.509C649.574 819.434 656.173 812.834 656.173 804.767V697.334C656.173 689.267 649.574 682.667 641.509 682.667Z" fill="#424B56"/>
<path d="M294.362 737.301C284.831 737.301 277.499 745.001 277.499 754.534C277.499 764.068 285.197 771.768 294.362 771.768C303.893 771.768 311.224 764.068 311.224 754.534C311.591 745.001 303.893 737.301 294.362 737.301ZM345.682 737.301C336.151 737.301 328.453 745.001 328.453 754.534C328.453 764.068 336.151 771.768 345.682 771.768C355.213 771.768 362.911 764.068 362.911 754.534C362.545 745.001 355.213 737.301 345.682 737.301ZM396.637 737.301C387.106 737.301 379.407 745.001 379.407 754.534C379.407 764.068 387.106 771.768 396.637 771.768C406.168 771.768 413.866 764.068 413.866 754.534C413.866 745.001 406.168 737.301 396.637 737.301ZM447.957 737.301C438.426 737.301 431.095 745.001 431.095 754.534C431.095 764.068 438.793 771.768 447.957 771.768C457.488 771.768 464.82 764.068 464.82 754.534C464.82 745.001 457.488 737.301 447.957 737.301ZM498.911 737.301C489.38 737.301 481.682 745.001 481.682 754.534C481.682 764.068 489.38 771.768 498.911 771.768C508.442 771.768 516.141 764.068 516.141 754.534C516.141 745.001 508.442 737.301 498.911 737.301ZM550.232 737.301C540.701 737.301 533.37 745.001 533.37 754.534C533.37 764.068 541.068 771.768 550.232 771.768C559.397 771.768 567.095 764.068 567.095 754.534C567.461 745.001 559.763 737.301 550.232 737.301Z" fill="#55606D"/>
<g opacity="0.5216">
<g opacity="0.5216">
<path opacity="0.5216" d="M469.219 682.667H439.893V818.334H469.219V682.667Z" fill="#292F37"/>
</g>
</g>
<path d="M593.855 605.667C533.003 605.667 450.89 625.834 450.89 657V935.667C450.89 1017.07 518.706 1071.33 586.523 1071.33C654.34 1071.33 729.488 1031.37 729.488 935.667V657C729.488 630.967 654.706 605.667 593.855 605.667Z" fill="#25272F"/>
<path d="M670.836 389.333H505.876C497.811 389.333 491.213 395.933 491.213 404V572.666C491.213 580.733 497.811 587.333 505.876 587.333H670.836C678.9 587.333 685.499 580.733 685.499 572.666V404C685.499 395.933 678.9 389.333 670.836 389.333Z" fill="#B6C4D4"/>
<path d="M670.836 396.667H505.876C497.811 396.667 491.213 403.267 491.213 411.334V580C491.213 588.067 497.811 594.667 505.876 594.667H670.836C678.9 594.667 685.499 588.067 685.499 580V411.334C685.499 403.267 678.9 396.667 670.836 396.667Z" fill="#D6E1EE"/>
<path d="M542.534 455.333H538.868C530.803 455.333 524.205 461.933 524.205 470V473.666C524.205 481.733 530.803 488.333 538.868 488.333H542.534C550.599 488.333 557.197 481.733 557.197 473.666V470C557.197 461.933 550.599 455.333 542.534 455.333Z" fill="#AAB6C5"/>
<path d="M645.176 455.333H641.51C633.445 455.333 626.847 461.933 626.847 470V473.666C626.847 481.733 633.445 488.333 641.51 488.333H645.176C653.24 488.333 659.839 481.733 659.839 473.666V470C659.839 461.933 653.24 455.333 645.176 455.333Z" fill="#AAB6C5"/>
<path d="M689.165 543.333H487.548C479.483 543.333 472.885 549.933 472.885 558V616.666C472.885 624.733 479.483 631.333 487.548 631.333H689.165C697.23 631.333 703.828 624.733 703.828 616.666V558C703.828 549.933 697.23 543.333 689.165 543.333Z" fill="#626D7A"/>
<g opacity="0.251">
<g opacity="0.251">
<path opacity="0.251" d="M585.424 561.667C494.879 561.667 472.885 580.367 472.885 590.267C472.885 600.167 472.885 609.334 472.885 609.334C472.885 609.334 493.78 588.434 585.424 588.434C677.068 588.434 703.828 609.334 703.828 609.334C703.828 609.334 703.828 601.634 703.828 590.267C703.828 578.9 675.968 561.667 585.424 561.667Z" fill="#363F48"/>
</g>
</g>
<path d="M593.855 580C533.003 580 450.89 600.167 450.89 631.333V910C450.89 991.4 518.706 1045.67 586.523 1045.67C654.34 1045.67 729.488 1005.7 729.488 910V631.333C729.488 605.3 654.706 580 593.855 580Z" fill="#505B67"/>
<path d="M586.523 576.333C477.283 576.333 450.89 612.633 450.89 631.333C450.89 650.033 450.89 668 450.89 668C450.89 668 476.183 627.666 586.523 627.666C696.863 627.666 729.488 668 729.488 668C729.488 668 729.488 653.333 729.488 631.333C729.488 609.333 695.763 576.333 586.523 576.333Z" fill="#788491"/>
<path d="M586.523 587.333C477.283 587.333 450.89 623.633 450.89 642.333C450.89 661.033 450.89 679 450.89 679C450.89 679 476.183 638.666 586.523 638.666C696.863 638.666 729.488 679 729.488 679C729.488 679 729.488 664.333 729.488 642.333C729.488 620.333 695.763 587.333 586.523 587.333Z" fill="#626D7A"/>
<path d="M634.178 708.333H546.2C526.038 708.333 509.542 724.833 509.542 745V866C509.542 886.166 526.038 902.666 546.2 902.666H634.178C654.34 902.666 670.836 886.166 670.836 866V745C670.836 724.833 654.34 708.333 634.178 708.333Z" fill="#566271"/>
<path d="M634.178 708.333H546.2C526.038 708.333 509.542 724.833 509.542 745V858.666C509.542 878.833 526.038 895.333 546.2 895.333H634.178C654.34 895.333 670.836 878.833 670.836 858.666V745C670.836 724.833 654.34 708.333 634.178 708.333Z" fill="#424B56"/>
<path d="M606.685 949.6V966.1H610.717V974.534H598.253V941.167H606.685L594.221 924.667L581.757 941.167H590.189V974.534H577.725V965.734C580.658 964.634 582.857 961.334 582.857 957.667C582.857 952.534 578.825 948.5 573.693 948.5C568.561 948.5 564.528 952.534 564.528 957.667C564.528 960.967 566.728 964.267 569.66 965.734V974.534C569.66 978.934 573.326 982.967 578.092 982.967H590.555V995.8C587.623 997.634 585.423 1000.2 585.423 1003.87C585.423 1009 589.455 1013.03 594.588 1013.03C599.72 1013.03 603.752 1009 603.752 1003.87C603.752 1000.2 601.553 997.267 598.62 995.8V982.967H611.083C615.482 982.967 619.515 979.3 619.515 974.534V966.1H623.547V949.6H606.685Z" fill="#5C6876"/>
<path d="M589.823 865.268C625.657 865.268 654.707 836.211 654.707 800.368C654.707 764.525 625.657 735.468 589.823 735.468C553.988 735.468 524.938 764.525 524.938 800.368C524.938 836.211 553.988 865.268 589.823 865.268Z" fill="#E4B22D"/>
<path d="M589.887 853.8C619.648 853.8 643.774 829.668 643.774 799.9C643.774 770.132 619.648 746 589.887 746C560.126 746 536 770.132 536 799.9C536 829.668 560.126 853.8 589.887 853.8Z" fill="#D4A527"/>
<g opacity="0.4196">
<g opacity="0.4196">
<path opacity="0.4196" d="M1030.45 560.567H648.476C640.411 560.567 633.812 567.167 633.812 575.234V682.667C633.812 690.734 640.411 697.334 648.476 697.334H1030.82C1038.88 697.334 1045.48 690.734 1045.48 682.667V575.234C1045.11 567.167 1038.88 560.567 1030.45 560.567Z" fill="#191A20"/>
</g>
</g>
<path d="M1037.41 547H641.51C633.445 547 626.847 553.6 626.847 561.667V669.1C626.847 677.167 633.445 683.767 641.51 683.767H1037.41C1045.48 683.767 1052.08 677.167 1052.08 669.1V561.667C1052.08 553.6 1045.48 547 1037.41 547Z" fill="#D52F2F"/>
<path d="M596.192 794.664C593.616 797.76 588.951 807.824 586.667 812.828C594.054 805.017 598.379 807.934 608.147 812.828C618.46 817.995 630.851 813.397 632.785 804.781C635.458 792.876 628.12 785.945 615.922 785.065C604.844 784.265 599.158 791.099 596.193 794.663L596.192 794.664Z" fill="#AD733B"/>
<path d="M582.142 805.336C584.718 802.24 589.383 792.176 591.667 787.172C584.28 794.983 579.955 792.066 570.187 787.172C559.874 782.005 547.483 786.603 545.548 795.219C542.876 807.124 550.214 814.055 562.412 814.935C573.49 815.735 579.176 808.901 582.141 805.337L582.142 805.336Z" fill="#AD733B"/>
<path d="M708.594 601.635C699.063 601.635 691.731 609.335 691.731 618.868C691.731 628.401 699.43 636.101 708.594 636.101C718.125 636.101 725.457 628.401 725.457 618.868C725.823 609.335 718.125 601.635 708.594 601.635ZM759.915 601.635C750.384 601.635 742.686 609.335 742.686 618.868C742.686 628.401 750.384 636.101 759.915 636.101C769.446 636.101 777.144 628.401 777.144 618.868C776.777 609.335 769.446 601.635 759.915 601.635ZM810.869 601.635C801.338 601.635 793.64 609.335 793.64 618.868C793.64 628.401 801.338 636.101 810.869 636.101C820.4 636.101 828.098 628.401 828.098 618.868C828.098 609.335 820.4 601.635 810.869 601.635ZM862.19 601.635C852.659 601.635 845.327 609.335 845.327 618.868C845.327 628.401 853.025 636.101 862.19 636.101C871.354 636.101 879.052 628.401 879.052 618.868C879.052 609.335 871.721 601.635 862.19 601.635ZM913.144 601.635C903.613 601.635 895.915 609.335 895.915 618.868C895.915 628.401 903.613 636.101 913.144 636.101C922.675 636.101 930.373 628.401 930.373 618.868C930.373 609.335 922.675 601.635 913.144 601.635ZM964.465 601.635C954.934 601.635 947.602 609.335 947.602 618.868C947.602 628.401 955.3 636.101 964.465 636.101C973.996 636.101 981.327 628.401 981.327 618.868C981.694 609.335 973.996 601.635 964.465 601.635Z" fill="white"/>
</svg>
