<svg width="1333" height="1349" viewBox="0 0 1333 1349" fill="none" xmlns="http://www.w3.org/2000/svg">
<path d="M60.0404 1318.92C60.0404 1302.51 73.6496 1288.9 90.0607 1288.9C106.472 1288.9 120.081 1302.51 120.081 1318.92C120.081 1335.33 106.472 1348.94 90.0607 1348.94C73.6496 1348.94 60.0404 1335.33 60.0404 1318.92ZM1016.68 1038.74C1016.68 1008.72 1040.7 984.703 1070.72 984.703C1100.74 984.703 1124.76 1008.72 1124.76 1038.74C1124.76 1068.76 1100.74 1092.77 1070.72 1092.77C1040.7 1092.77 1016.68 1068.76 1016.68 1038.74ZM0 230.212C0 127.345 83.2561 44.0911 186.125 44.0911C288.995 44.0911 372.251 127.345 372.251 230.212C372.251 333.079 288.995 416.333 186.125 416.333C83.2561 416.333 0 333.079 0 230.212ZM1220.82 308.263C1220.82 277.443 1246.04 252.227 1276.86 252.227C1307.68 252.227 1332.9 277.443 1332.9 308.263C1332.9 339.083 1307.68 364.3 1276.86 364.3C1246.04 364.3 1220.82 339.083 1220.82 308.263ZM16.0108 8.06771C16.0108 3.66484 19.6132 0.0625 24.0162 0.0625C28.4191 0.0625 32.0216 3.66484 32.0216 8.06771C32.0216 12.4706 28.4191 16.0729 24.0162 16.0729C19.6132 16.0729 16.0108 12.4706 16.0108 8.06771Z" fill="#404853"/>
<path opacity="0.71" d="M146.498 310.265H1046.7C1068.72 310.265 1086.73 328.276 1086.73 350.291V949.08C1086.73 971.095 1068.72 989.106 1046.7 989.106H146.498C124.483 989.106 106.471 971.095 106.471 949.08V350.291C106.471 328.276 124.483 310.265 146.498 310.265Z" fill="black"/>
<path d="M108.875 280.245H1084.73C1106.75 280.245 1124.76 298.257 1124.76 320.271V919.061C1124.76 941.075 1106.75 959.087 1084.73 959.087H108.875C86.8598 959.087 68.8477 941.075 68.8477 919.061V320.271C68.8477 297.857 86.4595 280.245 108.875 280.245Z" fill="#606B78"/>
<path d="M465.916 1007.92H731.295C742.502 1007.92 751.308 1016.72 751.308 1027.93V1044.74C751.308 1055.95 742.502 1064.76 731.295 1064.76H465.916C454.708 1064.76 445.902 1055.95 445.902 1044.74V1027.93C445.902 1016.72 454.708 1007.92 465.916 1007.92Z" fill="#606B78"/>
<path d="M116.079 300.258H1080.73C1093.94 300.258 1104.74 311.065 1104.74 324.273V840.609H92.0625V324.273C92.0625 311.065 102.87 300.258 116.079 300.258Z" fill="#505B67"/>
<path d="M596.803 925.066C611.393 925.066 623.22 913.239 623.22 898.649C623.22 884.059 611.393 872.231 596.803 872.231C582.212 872.231 570.385 884.059 570.385 898.649C570.385 913.239 582.212 925.066 596.803 925.066Z" fill="#4C5661"/>
<path d="M592 832.204C631.128 832.204 662.848 800.485 662.848 761.358C662.848 722.231 631.128 690.512 592 690.512C552.872 690.512 521.152 722.231 521.152 761.358C521.152 800.485 552.872 832.204 592 832.204Z" fill="#E4B22D"/>
<path d="M591.84 819.677C624.336 819.677 650.679 793.334 650.679 760.838C650.679 728.343 624.336 702 591.84 702C559.343 702 533 728.343 533 760.838C533 793.334 559.343 819.677 591.84 819.677Z" fill="#D4A527"/>
<path d="M598.191 755.664C595.615 758.76 590.95 768.824 588.666 773.828C596.053 766.017 600.378 768.934 610.146 773.828C620.459 778.995 632.85 774.397 634.785 765.781C637.457 753.876 630.119 746.945 617.921 746.065C606.843 745.265 601.157 752.099 598.192 755.663L598.191 755.664Z" fill="#AD733B"/>
<path d="M584.141 766.336C586.717 763.24 591.382 753.176 593.666 748.172C586.279 755.983 581.954 753.066 572.186 748.172C561.873 743.005 549.482 747.603 547.548 756.219C544.875 768.124 552.213 775.055 564.411 775.935C575.489 776.735 581.175 769.901 584.14 766.337L584.141 766.336Z" fill="#AD733B"/>
<path d="M793.334 760.557C784.528 760.557 777.323 753.352 777.323 744.547V531.208C777.323 529.607 777.724 527.605 778.124 526.004C777.724 524.804 777.323 523.603 777.323 522.802C777.323 518.8 780.526 515.197 784.929 515.197H917.418C921.42 515.197 925.023 518.399 925.023 522.802C925.023 524.003 924.623 525.204 924.222 526.405C924.623 528.006 925.023 529.607 925.023 531.608V744.547C925.023 753.352 917.818 760.557 909.012 760.557H793.334ZM437.895 760.557C429.089 760.557 421.884 753.352 421.884 744.547V444.351C421.884 435.546 429.089 428.341 437.895 428.341H727.29C736.096 428.341 743.3 435.546 743.3 444.351V744.547C743.3 753.352 736.096 760.557 727.29 760.557H437.895ZM332.224 760.557C323.418 760.557 316.213 753.352 316.213 744.547V523.603C316.213 514.797 323.418 507.592 332.224 507.592H357.04C365.846 507.592 373.051 514.797 373.051 523.603V744.547C373.051 753.352 365.846 760.557 357.04 760.557H332.224ZM332.224 496.385C323.418 496.385 316.213 489.18 316.213 480.375V444.351C316.213 435.546 323.418 428.341 332.224 428.341H357.04C365.846 428.341 373.051 435.546 373.051 444.351V480.375C373.051 489.18 365.846 496.385 357.04 496.385H332.224ZM793.334 496.385C784.528 496.385 777.323 489.18 777.323 480.375V444.351C777.323 435.546 784.528 428.341 793.334 428.341H908.612C917.418 428.341 924.623 435.546 924.623 444.351V480.375C924.623 489.18 917.418 496.385 908.612 496.385H793.334Z" fill="#3F4853"/>
<path d="M324.218 492.383H364.245C373.051 492.383 380.256 499.588 380.256 508.393V732.539C380.256 741.345 373.051 748.549 364.245 748.549H324.218C315.412 748.549 308.207 741.345 308.207 732.539V508.393C308.207 499.588 315.412 492.383 324.218 492.383Z" fill="#D6E1EE"/>
<path d="M324.218 412.331H364.245C373.051 412.331 380.256 419.536 380.256 428.341V464.365C380.256 473.171 373.051 480.375 364.245 480.375H324.218C315.412 480.375 308.207 473.171 308.207 464.365V428.341C308.207 419.536 315.412 412.331 324.218 412.331Z" fill="#CB4F51"/>
<path d="M321.416 696.915C321.416 685.308 330.622 676.102 342.23 676.102C353.838 676.102 363.044 685.308 363.044 696.915C363.044 708.523 353.838 717.729 342.23 717.729C330.622 717.329 321.416 708.123 321.416 696.915ZM329.021 647.683C329.021 640.479 335.025 634.475 342.23 634.475C349.435 634.475 355.439 640.479 355.439 647.683C355.439 654.888 349.435 660.892 342.23 660.892C335.025 660.892 329.021 655.288 329.021 647.683ZM329.021 576.037C329.021 568.832 335.025 562.828 342.23 562.828C349.435 562.828 355.439 568.832 355.439 576.037C355.439 583.241 349.435 589.245 342.23 589.245C335.025 589.245 329.021 583.241 329.021 576.037ZM329.021 530.807C329.021 523.603 335.025 517.599 342.23 517.599C349.435 517.599 355.439 523.603 355.439 530.807C355.439 538.012 349.435 544.016 342.23 544.016C335.025 544.016 329.021 538.012 329.021 530.807Z" fill="#BECEE2"/>
<path d="M432.292 416.333H736.497C745.303 416.333 752.508 423.538 752.508 432.343V732.539C752.508 741.344 745.303 748.549 736.497 748.549H432.292C423.486 748.549 416.281 741.344 416.281 732.539V432.343C416.281 423.538 423.486 416.333 432.292 416.333Z" fill="#D6E1EE"/>
<path d="M717.281 713.725C715.28 713.725 713.679 712.124 713.679 710.123C713.679 708.122 715.28 706.521 717.281 706.521C719.283 706.521 720.884 708.122 720.884 710.123C721.284 712.124 719.283 713.725 717.281 713.725ZM679.656 713.725C677.655 713.725 676.054 712.124 676.054 710.123C676.054 708.122 677.655 706.521 679.656 706.521H702.471C704.473 706.521 706.074 708.122 706.074 710.123C706.074 712.124 704.473 713.725 702.471 713.725H679.656ZM623.218 713.725C621.217 713.725 619.616 712.124 619.616 710.123C619.616 708.122 621.217 706.521 623.218 706.521H630.823C632.825 706.521 634.426 708.122 634.426 710.123C634.426 712.124 632.825 713.725 630.823 713.725H623.218ZM539.962 713.725C537.961 713.725 536.36 712.124 536.36 710.123C536.36 708.122 537.961 706.521 539.962 706.521H573.985C575.986 706.521 577.587 708.122 577.587 710.123C577.587 712.124 575.986 713.725 573.985 713.725H539.962ZM491.129 713.725C489.128 713.725 487.527 712.124 487.527 710.123C487.527 708.122 489.128 706.521 491.129 706.521H525.152C527.153 706.521 528.755 708.122 528.755 710.123C528.755 712.124 527.153 713.725 525.152 713.725H491.129ZM457.106 713.725C455.105 713.725 453.504 712.124 453.504 710.123C453.504 708.122 455.105 706.521 457.106 706.521H475.919C477.92 706.521 479.521 708.122 479.521 710.123C479.521 712.124 477.92 713.725 475.919 713.725H457.106ZM717.281 676.101C715.28 676.101 713.679 674.5 713.679 672.498C713.679 670.497 715.28 668.896 717.281 668.896C719.283 668.896 720.884 670.497 720.884 672.498C720.884 674.5 719.283 676.101 717.281 676.101ZM679.656 676.101C677.655 676.101 676.054 674.5 676.054 672.498C676.054 670.497 677.655 668.896 679.656 668.896H702.071C704.073 668.896 705.674 670.497 705.674 672.498C705.674 674.5 704.073 676.101 702.071 676.101H679.656ZM623.218 676.101C621.217 676.101 619.616 674.5 619.616 672.498C619.616 670.497 621.217 668.896 623.218 668.896H630.823C632.825 668.896 634.426 670.497 634.426 672.498C634.426 674.5 632.825 676.101 630.823 676.101H623.218ZM539.962 676.101C537.961 676.101 536.36 674.5 536.36 672.498C536.36 670.497 537.961 668.896 539.962 668.896H573.985C575.986 668.896 577.587 670.497 577.587 672.498C577.587 674.5 575.986 676.101 573.985 676.101H539.962ZM491.129 676.101C489.128 676.101 487.527 674.5 487.527 672.498C487.527 670.497 489.128 668.896 491.129 668.896H525.152C527.153 668.896 528.755 670.497 528.755 672.498C528.755 674.5 527.153 676.101 525.152 676.101H491.129ZM457.106 676.101C455.105 676.101 453.504 674.5 453.504 672.498C453.504 670.497 455.105 668.896 457.106 668.896H475.919C477.92 668.896 479.521 670.497 479.521 672.498C479.521 674.5 477.92 676.101 475.919 676.101H457.106ZM717.281 638.476C715.28 638.476 713.679 636.875 713.679 634.874C713.679 632.873 715.28 631.272 717.281 631.272C719.283 631.272 720.884 632.873 720.884 634.874C720.884 636.875 719.283 638.476 717.281 638.476ZM679.656 638.476C677.655 638.476 676.054 636.875 676.054 634.874C676.054 632.873 677.655 631.272 679.656 631.272H702.071C704.073 631.272 705.674 632.873 705.674 634.874C705.674 636.875 704.073 638.476 702.071 638.476H679.656ZM623.218 638.476C621.217 638.476 619.616 636.875 619.616 634.874C619.616 632.873 621.217 631.272 623.218 631.272H630.823C632.825 631.272 634.426 632.873 634.426 634.874C634.426 636.875 632.825 638.476 630.823 638.476H623.218ZM539.962 638.476C537.961 638.476 536.36 636.875 536.36 634.874C536.36 632.873 537.961 631.272 539.962 631.272H573.985C575.986 631.272 577.587 632.873 577.587 634.874C577.587 636.875 575.986 638.476 573.985 638.476H539.962ZM491.129 638.476C489.128 638.476 487.527 636.875 487.527 634.874C487.527 632.873 489.128 631.272 491.129 631.272H525.152C527.153 631.272 528.755 632.873 528.755 634.874C528.755 636.875 527.153 638.476 525.152 638.476H491.129ZM457.106 638.476C455.105 638.476 453.504 636.875 453.504 634.874C453.504 632.873 455.105 631.272 457.106 631.272H475.919C477.92 631.272 479.521 632.873 479.521 634.874C479.521 636.875 477.92 638.476 475.919 638.476H457.106ZM717.281 600.452C715.28 600.452 713.679 598.851 713.679 596.849C713.679 594.848 715.28 593.247 717.281 593.247C719.283 593.247 720.884 594.848 720.884 596.849C720.884 598.851 719.283 600.452 717.281 600.452ZM679.656 600.452C677.655 600.452 676.054 598.851 676.054 596.849C676.054 594.848 677.655 593.247 679.656 593.247H702.071C704.073 593.247 705.674 594.848 705.674 596.849C705.674 598.851 704.073 600.452 702.071 600.452H679.656ZM623.218 600.452C621.217 600.452 619.616 598.851 619.616 596.849C619.616 594.848 621.217 593.247 623.218 593.247H630.823C632.825 593.247 634.426 594.848 634.426 596.849C634.426 598.851 632.825 600.452 630.823 600.452H623.218ZM539.962 600.452C537.961 600.452 536.36 598.851 536.36 596.849C536.36 594.848 537.961 593.247 539.962 593.247H573.985C575.986 593.247 577.587 594.848 577.587 596.849C577.587 598.851 575.986 600.452 573.985 600.452H539.962ZM491.129 600.452C489.128 600.452 487.527 598.851 487.527 596.849C487.527 594.848 489.128 593.247 491.129 593.247H525.152C527.153 593.247 528.755 594.848 528.755 596.849C528.755 598.851 527.153 600.452 525.152 600.452H491.129ZM457.106 600.452C455.105 600.452 453.504 598.851 453.504 596.849C453.504 594.848 455.105 593.247 457.106 593.247H475.919C477.92 593.247 479.521 594.848 479.521 596.849C479.521 598.851 477.92 600.452 475.919 600.452H457.106ZM717.281 562.827C715.28 562.827 713.679 561.226 713.679 559.225C713.679 557.223 715.28 555.622 717.281 555.622C719.283 555.622 720.884 557.223 720.884 559.225C720.884 561.226 719.283 562.827 717.281 562.827ZM679.656 562.827C677.655 562.827 676.054 561.226 676.054 559.225C676.054 557.223 677.655 555.622 679.656 555.622H702.071C704.073 555.622 705.674 557.223 705.674 559.225C705.674 561.226 704.073 562.827 702.071 562.827H679.656ZM623.218 562.827C621.217 562.827 619.616 561.226 619.616 559.225C619.616 557.223 621.217 555.622 623.218 555.622H630.823C632.825 555.622 634.426 557.223 634.426 559.225C634.426 561.226 632.825 562.827 630.823 562.827H623.218ZM539.962 562.827C537.961 562.827 536.36 561.226 536.36 559.225C536.36 557.223 537.961 555.622 539.962 555.622H573.985C575.986 555.622 577.587 557.223 577.587 559.225C577.587 561.226 575.986 562.827 573.985 562.827H539.962ZM491.129 562.827C489.128 562.827 487.527 561.226 487.527 559.225C487.527 557.223 489.128 555.622 491.129 555.622H525.152C527.153 555.622 528.755 557.223 528.755 559.225C528.755 561.226 527.153 562.827 525.152 562.827H491.129ZM457.106 562.827C455.105 562.827 453.504 561.226 453.504 559.225C453.504 557.223 455.105 555.622 457.106 555.622H475.919C477.92 555.622 479.521 557.223 479.521 559.225C479.521 561.226 477.92 562.827 475.919 562.827H457.106ZM717.281 525.203C715.28 525.203 713.679 523.602 713.679 521.6C713.679 519.599 715.28 517.998 717.281 517.998C719.283 517.998 720.884 519.599 720.884 521.6C720.884 523.602 719.283 525.203 717.281 525.203ZM679.656 525.203C677.655 525.203 676.054 523.602 676.054 521.6C676.054 519.599 677.655 517.998 679.656 517.998H702.071C704.073 517.998 705.674 519.599 705.674 521.6C705.674 523.602 704.073 525.203 702.071 525.203H679.656ZM623.218 525.203C621.217 525.203 619.616 523.602 619.616 521.6C619.616 519.599 621.217 517.998 623.218 517.998H630.823C632.825 517.998 634.426 519.599 634.426 521.6C634.426 523.602 632.825 525.203 630.823 525.203H623.218ZM539.962 525.203C537.961 525.203 536.36 523.602 536.36 521.6C536.36 519.599 537.961 517.998 539.962 517.998H573.985C575.986 517.998 577.587 519.599 577.587 521.6C577.587 523.602 575.986 525.203 573.985 525.203H539.962ZM491.129 525.203C489.128 525.203 487.527 523.602 487.527 521.6C487.527 519.599 489.128 517.998 491.129 517.998H525.152C527.153 517.998 528.755 519.599 528.755 521.6C528.755 523.602 527.153 525.203 525.152 525.203H491.129ZM457.106 525.203C455.105 525.203 453.504 523.602 453.504 521.6C453.504 519.599 455.105 517.998 457.106 517.998H475.919C477.92 517.998 479.521 519.599 479.521 521.6C479.521 523.602 477.92 525.203 475.919 525.203H457.106ZM717.281 487.578C715.28 487.578 713.679 485.977 713.679 483.976C713.679 481.974 715.28 480.373 717.281 480.373C719.283 480.373 720.884 481.974 720.884 483.976C720.884 485.977 719.283 487.578 717.281 487.578ZM679.656 487.578C677.655 487.578 676.054 485.977 676.054 483.976C676.054 481.974 677.655 480.373 679.656 480.373H702.071C704.073 480.373 705.674 481.974 705.674 483.976C705.674 485.977 704.073 487.578 702.071 487.578H679.656ZM623.218 487.578C621.217 487.578 619.616 485.977 619.616 483.976C619.616 481.974 621.217 480.373 623.218 480.373H630.823C632.825 480.373 634.426 481.974 634.426 483.976C634.426 485.977 632.825 487.578 630.823 487.578H623.218ZM539.962 487.578C537.961 487.578 536.36 485.977 536.36 483.976C536.36 481.974 537.961 480.373 539.962 480.373H573.985C575.986 480.373 577.587 481.974 577.587 483.976C577.587 485.977 575.986 487.578 573.985 487.578H539.962ZM491.129 487.578C489.128 487.578 487.527 485.977 487.527 483.976C487.527 481.974 489.128 480.373 491.129 480.373H525.152C527.153 480.373 528.755 481.974 528.755 483.976C528.755 485.977 527.153 487.578 525.152 487.578H491.129ZM457.106 487.578C455.105 487.578 453.504 485.977 453.504 483.976C453.504 481.974 455.105 480.373 457.106 480.373H475.919C477.92 480.373 479.521 481.974 479.521 483.976C479.521 485.977 477.92 487.578 475.919 487.578H457.106ZM717.281 449.954C715.28 449.954 713.679 448.353 713.679 446.351C713.679 444.35 715.28 442.749 717.281 442.749C719.283 442.749 720.884 444.35 720.884 446.351C721.284 448.353 719.283 449.954 717.281 449.954ZM679.656 449.954C677.655 449.954 676.054 448.353 676.054 446.351C676.054 444.35 677.655 442.749 679.656 442.749H702.071C704.073 442.749 705.674 444.35 705.674 446.351C705.674 448.353 704.073 449.954 702.071 449.954H679.656ZM623.218 449.954C621.217 449.954 619.616 448.353 619.616 446.351C619.616 444.35 621.217 442.749 623.218 442.749H630.823C632.825 442.749 634.426 444.35 634.426 446.351C634.426 448.353 632.825 449.954 630.823 449.954H623.218ZM539.962 449.954C537.961 449.954 536.36 448.353 536.36 446.351C536.36 444.35 537.961 442.749 539.962 442.749H573.985C575.986 442.749 577.587 444.35 577.587 446.351C577.587 448.353 575.986 449.954 573.985 449.954H539.962ZM491.129 449.954C489.128 449.954 487.527 448.353 487.527 446.351C487.527 444.35 489.128 442.749 491.129 442.749H525.152C527.153 442.749 528.755 444.35 528.755 446.351C528.755 448.353 527.153 449.954 525.152 449.954H491.129ZM457.106 449.954C455.105 449.954 453.504 448.353 453.504 446.351C453.504 444.35 455.105 442.749 457.106 442.749H475.919C477.92 442.749 479.521 444.35 479.521 446.351C479.521 448.353 477.92 449.954 475.919 449.954H457.106Z" fill="#BECEE2"/>
<path d="M784.528 500.388H916.617C925.423 500.388 932.628 507.592 932.628 516.398V728.536C932.628 737.342 925.423 744.547 916.617 744.547H784.528C775.722 744.547 768.518 737.342 768.518 728.536V516.398C768.518 507.592 775.722 500.388 784.528 500.388Z" fill="#D6E1EE"/>
<path d="M818.951 698.518C818.951 694.515 822.153 690.913 826.556 690.913C830.959 690.913 834.161 694.115 834.161 698.518C834.161 702.92 830.959 706.122 826.556 706.122C822.553 706.122 818.951 702.92 818.951 698.518ZM845.369 702.52C843.367 702.52 841.766 700.919 841.766 698.918C841.766 696.916 843.367 695.315 845.369 695.315H898.204C900.206 695.315 901.807 696.916 901.807 698.918C901.807 700.919 900.206 702.52 898.204 702.52H845.369ZM792.533 683.708C792.533 673.301 800.939 664.896 811.346 664.896C821.753 664.896 830.159 673.301 830.159 683.708C830.159 684.108 830.159 684.508 830.159 684.909C823.754 681.707 815.749 684.508 812.547 691.313C810.946 694.915 810.946 698.918 812.547 702.52C812.146 702.52 811.746 702.52 811.346 702.52C801.339 702.52 792.533 694.115 792.533 683.708ZM845.369 691.313C843.367 691.313 841.766 689.712 841.766 687.71C841.766 685.709 843.367 684.108 845.369 684.108H867.784C869.785 684.108 871.386 685.709 871.386 687.71C871.386 689.712 869.785 691.313 867.784 691.313H845.369ZM818.951 626.871C818.951 622.868 822.153 619.266 826.556 619.266C830.959 619.266 834.161 622.468 834.161 626.871C834.161 631.274 830.959 634.476 826.556 634.476C822.553 634.476 818.951 631.274 818.951 626.871ZM845.369 630.874C843.367 630.874 841.766 629.272 841.766 627.271C841.766 625.27 843.367 623.669 845.369 623.669H898.204C900.206 623.669 901.807 625.27 901.807 627.271C901.807 629.272 900.206 630.874 898.204 630.874H845.369ZM792.533 612.061C792.533 601.654 800.939 593.249 811.346 593.249C821.753 593.249 830.159 601.654 830.159 612.061C830.159 612.462 830.159 612.862 830.159 613.262C828.557 612.462 826.556 612.061 824.555 612.061C817.35 612.061 811.346 618.065 811.346 625.27C811.346 627.271 811.746 629.272 812.547 630.874C812.146 630.874 811.746 630.874 811.346 630.874C800.939 630.874 792.533 622.468 792.533 612.061ZM845.369 619.666C843.367 619.666 841.766 618.065 841.766 616.064C841.766 614.063 843.367 612.462 845.369 612.462H867.784C869.785 612.462 871.386 614.063 871.386 616.064C871.386 618.065 869.785 619.666 867.784 619.666H845.369Z" fill="#BECEE2"/>
<path d="M804.142 529.207H838.165C840.166 529.207 841.768 530.808 841.768 532.809C841.768 534.811 840.166 536.412 838.165 536.412H804.142C802.141 536.412 800.54 534.811 800.54 532.809C800.14 530.808 802.141 529.207 804.142 529.207Z" fill="#BECEE2"/>
<path d="M871.788 529.207H905.811C907.812 529.207 909.413 530.808 909.413 532.809C909.413 534.811 907.812 536.412 905.811 536.412H871.788C869.787 536.412 868.186 534.811 868.186 532.809C868.186 530.808 869.787 529.207 871.788 529.207Z" fill="#BECEE2"/>
<path d="M796.537 555.225V551.623H917.419V555.225H796.537ZM852.975 548.021V518.001H856.578V548.021H852.975Z" fill="#CAD9EA"/>
<path d="M786.13 411.932H916.218C925.023 411.932 932.228 419.136 932.228 427.942V463.965C932.228 472.771 925.023 479.976 916.218 479.976H786.13C777.324 479.976 770.119 472.771 770.119 463.965V427.942C770.119 419.136 777.324 411.932 786.13 411.932Z" fill="#303740"/>
<path d="M804.141 457.161C802.14 457.161 800.539 455.56 800.539 453.558C800.539 451.557 802.14 449.956 804.141 449.956H875.79C877.791 449.956 879.392 451.557 879.392 453.558C879.392 455.56 877.791 457.161 875.79 457.161H804.141ZM804.141 442.351C802.14 442.351 800.539 440.75 800.539 438.749C800.539 436.748 802.14 435.146 804.141 435.146H838.164C840.166 435.146 841.767 436.748 841.767 438.749C841.767 440.75 840.166 442.351 838.164 442.351H804.141Z" fill="#495463"/>
<path d="M768.518 720.531H932.628V760.557C932.628 769.363 925.423 776.568 916.617 776.568H784.528C775.722 776.568 768.518 769.363 768.518 760.557V720.531Z" fill="#667483"/>
<path d="M768.518 728.536H932.628V752.552C932.628 761.358 925.423 768.562 916.617 768.562H784.528C775.722 768.562 768.518 761.358 768.518 752.552V728.536Z" fill="#3E4853"/>
<path d="M768.518 1050.75C768.518 1094.37 803.741 1129.6 847.371 1129.6C886.997 1129.6 930.627 1106.38 930.627 1050.75V888.641C930.627 873.431 886.997 858.621 851.774 858.621C816.55 858.621 768.518 870.229 768.518 888.641V1050.75Z" fill="#25272F"/>
<path d="M808.146 732.539H889.4C898.206 732.539 905.411 739.744 905.411 748.549V831.804C905.411 840.609 898.206 847.814 889.4 847.814H808.146C799.34 847.814 792.135 840.609 792.135 831.804V748.549C792.135 739.744 799.34 732.539 808.146 732.539Z" fill="#B6C4D4"/>
<path d="M808.146 736.94H889.4C898.206 736.94 905.411 744.145 905.411 752.951V836.205C905.411 845.011 898.206 852.215 889.4 852.215H808.146C799.34 852.215 792.135 845.011 792.135 836.205V752.951C792.135 744.145 799.34 736.94 808.146 736.94Z" fill="#D6E1EE"/>
<path d="M820.954 790.175C826.26 790.175 830.561 785.874 830.561 780.569C830.561 775.264 826.26 770.963 820.954 770.963C815.649 770.963 811.348 775.264 811.348 780.569C811.348 785.874 815.649 790.175 820.954 790.175Z" fill="#AAB6C5"/>
<path d="M880.593 790.175C885.898 790.175 890.199 785.874 890.199 780.569C890.199 775.264 885.898 770.963 880.593 770.963C875.287 770.963 870.986 775.264 870.986 780.569C870.986 785.874 875.287 790.175 880.593 790.175Z" fill="#AAB6C5"/>
<path d="M797.337 822.198H899.806C908.612 822.198 915.817 829.403 915.817 838.209V857.421C915.817 866.227 908.612 873.432 899.806 873.432H797.337C788.531 873.432 781.326 866.227 781.326 857.421V838.209C781.326 829.403 788.531 822.198 797.337 822.198Z" fill="#626D7A"/>
<path opacity="0.251" d="M781.326 849.415C781.326 843.812 794.135 832.604 846.97 832.604C899.806 832.604 915.817 842.611 915.817 849.415V860.623C915.817 860.623 900.206 848.215 846.97 848.215C793.735 848.215 781.326 860.623 781.326 860.623V849.415V849.415Z" fill="#363F48"/>
<path d="M768.518 1035.54C768.518 1079.17 803.741 1114.39 847.371 1114.39C886.997 1114.39 930.627 1091.17 930.627 1035.54V873.432C930.627 858.222 886.997 843.412 851.774 843.412C816.55 843.412 768.518 855.02 768.518 873.432V1035.54Z" fill="#505B67"/>
<path d="M768.518 873.431C768.518 862.624 783.728 841.41 847.371 841.41C911.013 841.41 930.627 860.623 930.627 873.431V894.645C930.627 894.645 911.814 871.029 847.371 871.029C782.927 871.029 768.518 894.645 768.518 894.645V873.431Z" fill="#788491"/>
<path d="M768.518 879.834C768.518 869.027 783.728 847.813 847.371 847.813C911.013 847.813 930.627 867.026 930.627 879.834V901.048C930.627 901.048 911.814 877.433 847.371 877.433C782.927 877.433 768.518 901.048 768.518 901.048V879.834Z" fill="#626D7A"/>
<path d="M844.568 916.659H860.579C882.594 916.659 900.606 934.671 900.606 956.685V988.706C900.606 1010.72 882.594 1028.73 860.579 1028.73H844.568C822.553 1028.73 804.541 1010.72 804.541 988.706V956.685C804.541 934.671 822.553 916.659 844.568 916.659Z" fill="#566271"/>
<path d="M844.568 916.659H860.579C882.594 916.659 900.606 934.671 900.606 956.685V984.303C900.606 1006.32 882.594 1024.33 860.579 1024.33H844.568C822.553 1024.33 804.541 1006.32 804.541 984.303V956.685C804.541 934.671 822.553 916.659 844.568 916.659Z" fill="#424B56"/>
<path d="M864.582 1000.71V984.703H880.592V989.506C880.592 995.51 875.789 1000.71 869.385 1000.71H864.582ZM844.568 1000.71V984.703H860.579V1000.71H844.568ZM835.762 1000.71C829.758 1000.71 824.555 995.91 824.555 989.506V984.703H840.565V1000.71H835.762ZM824.555 980.7V964.69H840.565V980.7H824.555ZM844.568 980.7V944.677H870.986C876.189 944.677 880.592 949.08 880.592 954.283V980.7H844.568ZM824.555 960.687V955.884C824.555 949.88 829.358 944.677 835.762 944.677H840.565V960.687H824.555Z" fill="#8898AC"/>
<path opacity="0.4" d="M768.518 736.542H932.628V748.55C932.628 757.356 925.423 764.56 916.617 764.56H784.528C775.722 764.56 768.518 757.356 768.518 748.55V736.542Z" fill="#303740"/>
<path d="M768.518 720.531H932.628V732.539C932.628 741.345 925.423 748.549 916.617 748.549H784.528C775.722 748.549 768.518 741.345 768.518 732.539V720.531Z" fill="#B3C5DB"/>
<path d="M816.55 1004.72C713.28 1098.38 594.801 971.896 594.4 862.225" stroke="#D6E1EE" stroke-width="2" stroke-linecap="round"/>
<path d="M618.816 887.04C618.816 887.04 596.801 857.821 591.998 858.622C587.195 859.422 579.59 895.045 579.59 895.045" stroke="#D6E1EE" stroke-width="2" stroke-linecap="round" stroke-linejoin="round"/>
</svg>
