<svg width="545" height="559" viewBox="0 0 545 559" fill="none" xmlns="http://www.w3.org/2000/svg">
<path d="M526.5 0C516.3 0 508 8.3 508 18.5C508 28.7 516.3 37 526.5 37C536.7 37 545 28.7 545 18.5C545 8.3 536.7 0 526.5 0ZM67 113.5C67 95 52 80 33.5 80C15 80 0 95 0 113.5C0 132 15 147 33.5 147C52 147 67 132 67 113.5ZM455.4 457.1C452.7 457.1 450.5 459.3 450.5 462C450.5 464.7 452.7 466.9 455.4 466.9C458.1 466.9 460.3 464.7 460.3 462C460.3 459.3 458.1 457.1 455.4 457.1ZM64.5 490C45.4 490 30 505.4 30 524.5C30 543.6 45.4 559 64.5 559C83.6 559 99 543.6 99 524.5C99 505.4 83.6 490 64.5 490ZM355.1 209.8C291.5 209.8 240 261.3 240 324.8C240 388.3 291.5 439.8 355.1 439.8C418.7 439.8 470.2 388.3 470.2 324.8C470.2 261.3 418.7 209.8 355.1 209.8Z" fill="black"/>
<path d="M318.49 261.171C312.768 268.274 302.405 291.363 297.331 302.842C313.74 284.922 323.348 291.615 345.047 302.842C367.958 314.697 395.485 304.148 399.781 284.382C405.719 257.069 389.418 241.168 362.32 239.148C337.709 237.313 325.078 252.993 318.492 261.168L318.49 261.171Z" fill="url(#paint0_linear)"/>
<path d="M288.507 285.654C294.229 278.551 304.593 255.462 309.667 243.983C293.258 261.904 283.649 255.21 261.95 243.983C239.039 232.128 211.513 242.678 207.216 262.443C201.278 289.756 217.58 305.657 244.677 307.677C269.288 309.512 281.919 293.833 288.505 285.657L288.507 285.654Z" fill="url(#paint1_linear)"/>
<defs>
<linearGradient id="paint0_linear" x1="324.32" y1="273.33" x2="393.844" y2="297.189" gradientUnits="userSpaceOnUse">
<stop stop-color="#CCA350"/>
<stop offset="1" stop-color="#8F6812"/>
</linearGradient>
<linearGradient id="paint1_linear" x1="288.477" y1="258.54" x2="205.998" y2="263.075" gradientUnits="userSpaceOnUse">
<stop stop-color="#DAB057"/>
<stop offset="1" stop-color="#88611F"/>
</linearGradient>
</defs>
</svg>
