<svg width="902" height="1056" viewBox="0 0 902 1056" fill="none" xmlns="http://www.w3.org/2000/svg">
<path d="M73.2486 213.002C97.8537 210.934 116.13 189.323 114.092 164.718C112.024 140.113 90.4135 121.837 65.8084 123.874C41.2034 125.943 22.9271 147.553 24.9647 172.158C27.0331 196.794 48.6435 215.071 73.2486 213.002V213.002ZM53.8301 938.836C21.507 941.522 -2.48063 969.893 0.205243 1002.15C2.89111 1034.42 31.2934 1058.43 63.5856 1055.72C95.9087 1053.03 119.896 1024.66 117.21 992.399C114.525 960.138 86.1223 936.15 53.8301 938.836ZM687.788 862.705C678.434 863.477 671.488 871.689 672.291 881.043C673.062 890.398 681.274 897.344 690.629 896.541C699.983 895.769 706.929 887.557 706.126 878.203C705.355 868.849 697.143 861.903 687.788 862.705ZM901.485 15.7294C900.713 6.34431 892.47 -0.601912 883.085 0.169891C873.731 0.972565 866.785 9.18454 867.557 18.5697C868.328 27.9548 876.571 34.901 885.956 34.1292C895.311 33.3265 902.288 25.1145 901.485 15.7294V15.7294Z" fill="#606B78"/>
<path d="M640.726 223.648H649.833L645.295 211.608L640.726 223.648ZM629.767 141.158C591.825 141.158 561.076 171.907 561.076 209.849C561.076 247.79 591.825 278.539 629.767 278.539C667.708 278.539 698.457 247.79 698.457 209.849C698.457 171.907 667.708 141.158 629.767 141.158ZM621.431 215.313L607.384 229.205L603.402 225.285L617.665 211.331C614.145 207.471 611.336 203.18 609.298 198.673H614.917C616.615 201.976 618.776 205.094 621.4 207.996C625.444 203.551 628.408 198.457 630.291 193.116H598.987V187.528H618.622V181.971H624.24V187.528H643.875V193.085H635.663C633.626 199.63 630.137 205.835 625.259 211.238L625.167 211.331L632.298 218.308L630.168 223.957L621.431 215.313V215.313ZM655.113 237.541L651.964 229.205H638.627L635.478 237.541H629.859L642.486 204.199H648.105L660.731 237.541H655.113Z" fill="#F1C867"/>
<path d="M503.348 692.65C503.348 626.522 554.719 572.403 619.736 567.958C627.114 523.471 619.612 476.268 595.131 434.158L528.694 320.055C472.414 223.364 347.722 190.238 250.228 246.055C229.019 258.218 210.835 273.562 195.955 291.19C243.807 308.725 277.982 354.693 277.982 408.627C277.982 468.21 236.274 518.038 180.457 530.572L242.016 636.309C295.548 728.246 410.855 762.668 505.88 717.842C504.213 709.723 503.348 701.294 503.348 692.65V692.65Z" fill="#3E4049"/>
<path d="M503.013 693.145C503.013 629.796 550.124 577.499 611.22 569.287C586.522 504.177 520.209 437.771 416.942 437.771C304.815 437.771 239.489 526.436 221.491 590.897C220.873 593.089 221.12 594.447 220.904 596.948C227.758 621.121 280.827 737.941 421.511 737.941C454.452 737.941 482.422 731.149 506.039 720.406C504.063 711.638 503.013 702.5 503.013 693.145V693.145Z" fill="#585A67"/>
<path d="M294.084 696.891V651.416C294.084 651.416 257.439 651.416 253.055 651.416C264.045 674.2 294.084 696.891 294.084 696.891ZM544.827 651.416V696.891C544.827 696.891 574.865 674.23 585.856 651.416C581.441 651.416 544.827 651.416 544.827 651.416Z" fill="#3E4049"/>
<path d="M494.174 474.17C494.174 466.976 493.186 459.969 491.334 453.362C491.149 452.652 490.717 451.263 490.717 451.263C490.717 451.263 455.893 437.771 416.655 437.771C377.416 437.771 342.592 451.263 342.592 451.263C342.592 451.263 342.222 452.436 342.068 453.022C340.154 459.722 339.135 466.822 339.135 474.139C339.135 503.869 355.96 529.647 380.627 542.613C387.326 550.331 389.302 560.581 389.302 560.581V728.864C389.302 737.632 390.845 737.972 421.224 737.972C447.743 737.972 448.576 737.478 448.576 728.864V560.581C448.576 560.581 452.991 544.959 462.253 537.828C464.136 536.377 464.661 535.513 464.352 535.08C482.505 520.941 494.174 498.929 494.174 474.17Z" fill="#3E4049"/>
<path d="M419.558 387.99C390.6 387.99 367.137 411.422 367.137 440.288V476.686C367.137 505.582 390.6 528.983 419.558 528.983C448.516 528.983 471.978 505.551 471.978 476.686V440.288C471.978 411.422 448.516 387.99 419.558 387.99Z" fill="#727485"/>
<path d="M421.936 60.2637C333.827 60.2637 262.389 131.547 262.389 219.44L271.496 296.744C271.496 384.668 333.827 396.8 421.936 396.8C510.045 396.8 572.375 384.668 572.375 296.744L581.483 219.44C581.483 131.516 510.045 60.2637 421.936 60.2637V60.2637Z" fill="#585A67"/>
<path d="M421.518 92.4141C345.665 92.4141 284.168 153.572 284.168 229.023V320.096C284.168 395.547 345.665 456.705 421.518 456.705C497.371 456.705 558.868 395.547 558.868 320.096V229.023C558.868 153.572 497.371 92.4141 421.518 92.4141Z" fill="#727485"/>
<path d="M524.032 330.628C512.887 325.318 498.995 332.48 492.975 346.589C486.955 360.697 491.123 376.442 502.236 381.721C513.381 387.031 527.274 379.869 533.294 365.76C539.314 351.652 535.146 335.938 524.032 330.628ZM319.968 330.628C308.915 335.907 304.779 351.652 310.768 365.76C316.757 379.869 330.557 387 341.609 381.721C352.661 376.442 356.798 360.697 350.809 346.589C344.82 332.48 331.02 325.349 319.968 330.628Z" fill="#797C8E"/>
<path d="M239.572 277.929V282.745C239.572 307.875 259.948 328.251 285.078 328.251H285.109V232.424H285.078C259.948 232.424 239.572 252.799 239.572 277.929ZM558.08 232.424H558.049V328.22H558.08C583.21 328.22 603.585 307.844 603.585 282.714V277.898C603.585 252.799 583.21 232.424 558.08 232.424Z" fill="#676979"/>
<path d="M357.709 287.88C350.176 287.88 344.064 293.993 344.064 301.525C344.064 309.058 350.176 315.171 357.709 315.171C365.242 315.171 371.355 309.058 371.355 301.525C371.355 293.993 365.242 287.88 357.709 287.88ZM480.827 287.88C473.294 287.88 467.182 293.993 467.182 301.525C467.182 309.058 473.294 315.171 480.827 315.171C488.36 315.171 494.472 309.058 494.472 301.525C494.472 293.993 488.36 287.88 480.827 287.88ZM499.566 246.974L462.921 247.098C457.858 247.129 453.752 251.173 453.721 256.143C453.69 261.114 457.796 265.127 462.859 265.127L499.535 264.973C504.599 264.942 508.704 260.898 508.735 255.927C508.735 250.957 504.629 246.944 499.566 246.974ZM375.615 247.098L338.939 246.944C333.876 246.913 329.801 250.926 329.801 255.927C329.801 260.929 333.938 264.942 339.001 264.973L375.677 265.127C380.74 265.158 384.815 261.145 384.815 256.143C384.784 251.173 380.678 247.129 375.615 247.098Z" fill="#585A67"/>
<path d="M447.621 370.359H395.139C395.139 370.359 405.759 376.534 422.924 376.534C440.088 376.534 447.621 370.359 447.621 370.359Z" fill="#585A67"/>
<path d="M421.51 60.2637C341.613 60.2637 259.277 119.723 259.277 240.279C260.667 244.786 283.419 217.804 284.5 264.946C287 272.108 295.212 225.954 291.817 210.148C288.421 194.341 317.317 137.598 330.314 137.598C343.311 137.598 378.66 159.919 424.999 159.919C471.338 159.919 499.215 134.48 508.816 136.456C518.418 138.432 551.543 169.489 550.772 205.239C550 240.989 557.44 270.441 557.44 264.946C557.44 240.68 576.766 245.898 585.626 242.44C585.626 118.272 501.407 60.2637 421.51 60.2637V60.2637Z" fill="#585A67"/>
<path d="M153.275 503.712C205.278 503.712 247.435 461.556 247.435 409.552C247.435 357.549 205.278 315.393 153.275 315.393C101.272 315.393 59.1152 357.549 59.1152 409.552C59.1152 461.556 101.272 503.712 153.275 503.712Z" fill="#585A67"/>
<path d="M159.406 402.196C149.404 398.43 145.267 395.96 145.267 392.101C145.267 388.798 147.736 385.525 155.393 385.525C163.883 385.525 169.285 388.242 172.342 389.539L175.768 376.264C171.878 374.38 166.568 372.744 158.696 372.405V362.062H147.15V373.207C134.554 375.677 127.237 383.766 127.237 394.108C127.237 405.5 135.851 411.365 148.447 415.595C157.152 418.528 160.919 421.368 160.919 425.813C160.919 430.506 156.319 433.099 149.62 433.099C141.963 433.099 135.017 430.629 130.078 427.944L126.527 441.682C131.004 444.244 138.66 446.374 146.563 446.745V457.889H158.109V445.911C171.662 443.565 179.072 434.643 179.072 424.208C179.102 413.588 173.453 407.105 159.406 402.196V402.196Z" fill="#2D2F38"/>
<circle cx="628.143" cy="693" r="94" fill="black"/>
<path d="M640.559 682.788C635.821 688.67 627.237 707.793 623.035 717.3C636.625 702.458 644.583 708.001 662.554 717.3C681.529 727.117 704.326 718.381 707.884 702.011C712.802 679.39 699.301 666.222 676.859 664.548C656.477 663.029 646.016 676.014 640.561 682.785L640.559 682.788Z" fill="url(#paint0_linear)"/>
<path d="M615.727 703.065C620.465 697.182 629.049 678.06 633.251 668.553C619.661 683.395 611.703 677.851 593.732 668.553C574.758 658.735 551.96 667.472 548.402 683.842C543.484 706.462 556.985 719.631 579.427 721.304C599.81 722.824 610.27 709.838 615.725 703.067L615.727 703.065Z" fill="url(#paint1_linear)"/>
<defs>
<linearGradient id="paint0_linear" x1="645.387" y1="692.858" x2="702.967" y2="712.617" gradientUnits="userSpaceOnUse">
<stop stop-color="#CCA350"/>
<stop offset="1" stop-color="#8F6812"/>
</linearGradient>
<linearGradient id="paint1_linear" x1="615.702" y1="680.609" x2="547.393" y2="684.365" gradientUnits="userSpaceOnUse">
<stop stop-color="#DAB057"/>
<stop offset="1" stop-color="#88611F"/>
</linearGradient>
</defs>
</svg>
