<svg width="1328" height="1362" viewBox="0 0 1328 1362" fill="none" xmlns="http://www.w3.org/2000/svg">
<path d="M1076.17 37.0109C1076.17 16.5809 1059.59 0 1039.16 0C1018.73 0 1002.15 16.5809 1002.15 37.0109C1002.15 57.4409 1018.73 74.0217 1039.16 74.0217C1059.59 74.0217 1076.17 57.4409 1076.17 37.0109ZM136.092 217.13C99.2786 217.13 69.4725 246.937 69.4725 283.75C69.4725 320.563 99.2786 350.37 136.092 350.37C172.906 350.37 202.712 320.563 202.712 283.75C202.712 246.937 172.906 217.13 136.092 217.13ZM49.7334 1273.17C25.2075 1273.17 5.32031 1293.06 5.32031 1317.59C5.32031 1342.11 25.2075 1362 49.7334 1362C74.2592 1362 94.1464 1342.11 94.1464 1317.59C94.1464 1293.06 74.2592 1273.17 49.7334 1273.17ZM1061.36 1031.37C1055.94 1031.37 1051.49 1035.81 1051.49 1041.24C1051.49 1046.67 1055.94 1051.11 1061.36 1051.11C1066.79 1051.11 1071.23 1046.67 1071.23 1041.24C1071.23 1035.81 1066.79 1031.37 1061.36 1031.37Z" fill="#404853"/>
<path d="M595.451 63.8438C291.172 63.8438 45.2227 309.793 45.2227 614.072C45.2227 918.351 291.172 1164.3 595.451 1164.3C899.729 1164.3 1145.68 918.351 1145.68 614.072C1145.68 309.793 899.729 63.8438 595.451 63.8438V63.8438ZM429.346 138.803C400.33 179.515 375.557 222.497 354.88 267.552H229.981C284.461 209.913 352.61 165.352 429.346 138.803V138.803ZM190.601 314.333H335.092C301.091 401.876 282.438 495.292 279.723 590.681H92.6952C97.4326 487.396 133.012 392.204 190.601 314.333V314.333ZM190.601 913.811C133.012 835.94 97.4326 740.748 92.6952 637.463H279.723C282.438 732.901 301.782 826.268 335.98 913.811H190.601ZM229.981 960.642H356.015C376.939 1005.65 401.711 1049.07 430.284 1089.83C353.301 1063.24 284.658 1018.48 229.981 960.642ZM572.06 1117.02C548.669 1115.89 525.476 1113.18 502.973 1109.13C465.617 1062.99 433.639 1013.25 407.781 960.839H572.06V1117.02V1117.02ZM572.06 913.811H386.364C350.143 826.514 329.417 733.099 326.505 637.463H572.011V913.811H572.06ZM572.06 590.681H326.505C329.417 495.242 349.896 401.63 385.92 314.333H572.011V590.681H572.06ZM572.257 267.502H407.337C433.442 214.601 465.419 164.859 502.973 119.212C525.476 114.919 548.669 112.451 572.307 111.316V267.502H572.257V267.502ZM1000.3 314.333C1057.89 392.204 1093.72 487.149 1098.21 590.681H911.178C908.464 495.242 889.12 401.876 854.922 314.333H1000.3V314.333ZM960.921 267.502H834.886C813.963 222.497 789.19 179.071 760.421 138.31C837.601 164.908 906.243 209.667 960.921 267.502ZM618.842 111.316C642.233 112.451 665.426 115.165 687.929 119.212C725.285 165.352 757.262 215.095 783.121 267.502H618.842V111.316ZM618.842 314.333H804.488C840.709 401.432 861.436 495.045 864.347 590.681H618.842V314.333V314.333ZM618.842 637.463H864.396C861.485 732.901 841.006 826.514 804.982 913.811H618.891V637.463H618.842V637.463ZM618.644 1116.83V960.642H783.614C757.509 1013.54 725.532 1063.29 687.978 1108.93C665.426 1113.23 642.282 1115.69 618.644 1116.83ZM760.421 1089.83C788.993 1049.12 813.766 1005.65 834.442 960.642H961.118C906.243 1018.48 837.601 1063.24 760.421 1089.83V1089.83ZM854.231 913.811C887.985 826.268 907.132 732.852 910.931 637.463H1098.4C1093.67 740.748 1058.14 835.94 1000.5 913.811H854.231V913.811Z" fill="#555F6A"/>
<path d="M595.123 946.842C779.088 946.842 928.221 797.709 928.221 613.744C928.221 429.779 779.088 280.646 595.123 280.646C411.158 280.646 262.025 429.779 262.025 613.744C262.025 797.709 411.158 946.842 595.123 946.842Z" fill="#555F6A"/>
<path d="M594.217 907.788C756.379 907.788 887.837 776.33 887.837 614.168C887.837 452.007 756.379 320.549 594.217 320.549C432.056 320.549 300.598 452.007 300.598 614.168C300.598 776.33 432.056 907.788 594.217 907.788Z" fill="#2D2F38"/>
<path d="M1154.32 109.066C1058.93 109.066 981.598 186.394 981.598 281.784C981.598 317.709 992.553 351.068 1011.31 378.703C1011.65 379.196 1012.34 380.233 1012.34 380.233C1012.34 380.233 990.53 444.336 994.379 448.135C998.228 451.935 1066.33 430.469 1066.33 430.469C1066.33 430.469 1067.71 431.308 1068.4 431.702C1093.72 446.211 1123.03 454.551 1154.32 454.551C1249.7 454.551 1327.03 377.222 1327.03 281.833C1327.03 186.394 1249.7 109.066 1154.32 109.066V109.066Z" fill="#606B78"/>
<path d="M1154.74 147.639C1081.16 147.639 1021.5 207.3 1021.5 280.878C1021.5 308.562 1029.94 334.322 1044.45 355.64C1044.69 356.035 1045.24 356.824 1045.24 356.824C1045.24 356.824 1028.41 406.221 1031.37 409.182C1034.33 412.143 1086.89 395.562 1086.89 395.562C1086.89 395.562 1087.97 396.204 1088.51 396.5C1108.01 407.702 1130.61 414.117 1154.74 414.117C1228.32 414.117 1287.98 354.455 1287.98 280.878C1287.98 207.3 1228.32 147.639 1154.74 147.639V147.639Z" fill="#2D2F38"/>
<path d="M152.139 1042.46C151.942 1042.11 151.547 1041.47 151.547 1041.47C151.547 1041.47 161.664 1009.35 159.887 1007.57C158.11 1005.79 127.86 1016.06 127.86 1016.06C127.86 1016.06 127.367 1015.71 127.12 1015.56C114.092 1006.73 98.3502 1001.55 81.4239 1001.55C36.4681 1001.55 0 1038.02 0 1082.97C0 1127.93 36.4681 1164.4 81.4239 1164.4C126.38 1164.4 162.897 1127.93 162.897 1082.97C162.897 1068.22 158.999 1054.4 152.139 1042.46V1042.46Z" fill="#606B78"/>
<circle cx="598.869" cy="619.5" r="145.5" fill="black"/>
<path d="M618.088 603.693C610.753 612.798 597.467 642.397 590.963 657.113C611.999 634.139 624.316 642.72 652.133 657.113C681.503 672.309 716.79 658.786 722.299 633.447C729.91 598.434 709.013 578.05 674.276 575.46C642.726 573.108 626.534 593.208 618.091 603.689L618.088 603.693Z" fill="url(#paint0_linear)"/>
<path d="M579.65 635.079C586.985 625.974 600.271 596.375 606.775 581.659C585.74 604.632 573.422 596.052 545.605 581.659C516.235 566.462 480.948 579.986 475.44 605.324C467.828 640.338 488.725 660.721 523.462 663.311C555.012 665.664 571.204 645.563 579.647 635.083L579.65 635.079Z" fill="url(#paint1_linear)"/>
<defs>
<linearGradient id="paint0_linear" x1="625.561" y1="619.28" x2="714.687" y2="649.865" gradientUnits="userSpaceOnUse">
<stop stop-color="#CCA350"/>
<stop offset="1" stop-color="#8F6812"/>
</linearGradient>
<linearGradient id="paint1_linear" x1="579.612" y1="600.321" x2="473.879" y2="606.133" gradientUnits="userSpaceOnUse">
<stop stop-color="#DAB057"/>
<stop offset="1" stop-color="#88611F"/>
</linearGradient>
</defs>
</svg>
