<svg width="2206" height="2375" viewBox="0 0 2206 2375" fill="none" xmlns="http://www.w3.org/2000/svg">
<path d="M445.841 2313.92C445.841 2280.68 473.405 2253.11 506.643 2253.11C539.881 2253.11 567.445 2280.68 567.445 2313.92C567.445 2347.16 539.881 2374.73 506.643 2374.73C473.405 2374.73 445.841 2347.16 445.841 2313.92ZM1961.83 1908.52C1961.83 1847.71 2010.47 1799.07 2071.27 1799.07C2132.08 1799.07 2180.72 1847.71 2180.72 1908.52C2180.72 1969.33 2132.08 2017.98 2071.27 2017.98C2010.47 2017.98 1961.83 1969.33 1961.83 1908.52ZM210.741 420.717C210.741 411.799 218.037 404.501 226.955 404.501C235.873 404.501 243.169 411.799 243.169 420.717C243.169 429.636 235.873 436.933 226.955 436.933C218.037 436.933 210.741 429.636 210.741 420.717ZM2059.11 209.911C2059.11 169.371 2091.54 136.939 2132.08 136.939C2172.61 136.939 2205.04 169.371 2205.04 209.911C2205.04 250.451 2172.61 282.882 2132.08 282.882C2091.54 282.882 2059.11 250.451 2059.11 209.911Z" fill="#404853"/>
<path d="M1888.87 915.301V818.006C1888.87 745.034 1849.15 696.387 1775.37 696.387H818.759C749.039 696.387 680.941 728.008 680.941 809.898V915.301H1888.87Z" fill="#778391"/>
<path d="M1888.87 939.625V842.33C1888.87 769.359 1849.15 720.711 1775.37 720.711H818.759C749.039 720.711 713.369 752.332 713.369 834.222V939.625H1888.87Z" fill="#606B78"/>
<path d="M1167.35 1061.24C1288.24 1061.24 1386.24 963.233 1386.24 842.33C1386.24 721.427 1288.24 623.416 1167.35 623.416C1046.47 623.416 948.469 721.427 948.469 842.33C948.469 963.233 1046.47 1061.24 1167.35 1061.24Z" fill="#E4B22D"/>
<path d="M1165.41 1022.78C1266.14 1022.78 1347.81 941.099 1347.81 840.347C1347.81 739.594 1266.14 657.918 1165.41 657.918C1064.67 657.918 983 739.594 983 840.347C983 941.099 1064.67 1022.78 1165.41 1022.78Z" fill="#D4A527"/>
<path d="M1191.84 820.867C1182.26 832.384 1164.9 869.821 1156.41 888.435C1183.88 859.377 1199.97 870.23 1236.31 888.435C1274.67 907.656 1320.77 890.551 1327.96 858.502C1337.9 814.215 1310.61 788.434 1265.23 785.158C1224.02 782.183 1202.87 807.606 1191.84 820.862L1191.84 820.867Z" fill="#AD733B"/>
<path d="M1139.16 860.565C1148.74 849.048 1166.1 811.61 1174.59 792.997C1147.12 822.055 1131.03 811.202 1094.69 792.997C1056.33 773.776 1010.23 790.881 1003.04 822.93C993.097 867.216 1020.39 892.998 1065.77 896.274C1106.98 899.249 1128.13 873.826 1139.16 860.569L1139.16 860.565Z" fill="#AD733B"/>
<path d="M1426.77 988.274C1547.66 988.274 1645.66 890.263 1645.66 769.36C1645.66 648.457 1547.66 550.445 1426.77 550.445C1305.89 550.445 1207.89 648.457 1207.89 769.36C1207.89 890.263 1305.89 988.274 1426.77 988.274Z" fill="#E4B22D"/>
<path d="M1425.41 949.777C1526.14 949.777 1607.81 868.101 1607.81 767.349C1607.81 666.596 1526.14 584.92 1425.41 584.92C1324.67 584.92 1243 666.596 1243 767.349C1243 868.101 1324.67 949.777 1425.41 949.777Z" fill="#D4A527"/>
<path d="M1451.84 747.867C1442.26 759.384 1424.9 796.821 1416.41 815.435C1443.88 786.377 1459.97 797.23 1496.31 815.435C1534.67 834.656 1580.77 817.551 1587.96 785.502C1597.9 741.215 1570.61 715.434 1525.23 712.158C1484.02 709.183 1462.87 734.606 1451.84 747.862L1451.84 747.867Z" fill="#AD733B"/>
<path d="M1399.16 787.565C1408.74 776.048 1426.1 738.61 1434.59 719.997C1407.12 749.055 1391.03 738.202 1354.69 719.997C1316.33 700.776 1270.23 717.881 1263.04 749.93C1253.1 794.216 1280.39 819.998 1325.77 823.274C1366.98 826.249 1388.13 800.826 1399.16 787.569L1399.16 787.565Z" fill="#AD733B"/>
<path d="M680.941 1669.34C680.941 1730.15 712.558 1799.06 818.759 1799.06H1791.59C1858.06 1799.06 1921.3 1753.66 1921.3 1661.23V1028.81C1921.3 979.352 1901.84 907.192 1799.69 907.192H786.331C757.146 907.192 721.476 882.868 721.476 850.436C721.476 841.517 680.941 830.977 680.941 866.652V1669.34Z" fill="#23242C"/>
<path d="M680.941 1604.47C680.941 1665.28 712.558 1734.2 818.759 1734.2H1791.59C1858.06 1734.2 1921.3 1688.8 1921.3 1596.37V963.947C1921.3 914.489 1901.84 842.328 1799.69 842.328H786.331C757.146 842.328 721.476 818.004 721.476 785.573C721.476 776.654 680.941 766.114 680.941 801.789V1604.47Z" fill="#778391"/>
<path d="M680.941 1604.47C680.941 1665.28 712.558 1734.2 818.759 1734.2H1791.59C1858.06 1734.2 1921.3 1688.8 1921.3 1596.37V988.271C1921.3 938.813 1901.84 866.652 1799.69 866.652H786.331C727.961 866.652 689.048 826.113 689.048 793.681C687.427 770.168 689.048 765.303 680.941 783.951V1604.47Z" fill="#606B78"/>
<path opacity="0.38" d="M705.262 1588.26C731.204 1649.88 753.092 1661.23 818.758 1661.23H1734.84C1787.53 1661.23 1848.33 1625.56 1848.33 1572.05V1028.81C1848.33 1004.49 1827.26 947.735 1775.37 947.735H810.651C769.306 947.735 703.64 934.762 689.048 882.871" stroke="#444D59" stroke-width="2" stroke-linecap="round" stroke-linejoin="round" stroke-dasharray="4 4"/>
<path opacity="0.388" d="M1937.51 1231.51C1939.13 1215.3 1926.97 1200.7 1909.94 1199.08C1908.32 1199.08 1906.7 1199.08 1905.08 1199.08H1783.47C1709.7 1201.51 1652.14 1263.13 1653.76 1336.91C1653.76 1430.16 1724.29 1474.75 1783.47 1474.75H1905.08C1922.1 1475.56 1936.69 1462.59 1937.51 1445.56C1937.51 1444.75 1937.51 1443.13 1937.51 1442.32V1231.51Z" fill="black"/>
<path d="M1953.72 1207.19C1955.34 1190.97 1943.18 1176.38 1926.15 1174.76C1924.53 1174.76 1922.91 1174.76 1921.29 1174.76H1791.58C1717.81 1177.19 1660.25 1238.81 1661.87 1312.59C1661.87 1405.83 1732.4 1450.43 1791.58 1450.43H1921.29C1938.31 1451.24 1952.91 1438.26 1953.72 1421.24C1953.72 1420.43 1953.72 1418.8 1953.72 1417.99V1207.19Z" fill="#778391"/>
<path d="M1953.72 1223.4C1955.34 1207.19 1943.18 1192.59 1926.15 1190.97C1924.53 1190.97 1922.91 1190.97 1921.29 1190.97H1799.69C1725.91 1193.41 1668.36 1255.03 1669.98 1328.81C1669.98 1422.05 1740.51 1450.43 1799.69 1450.43H1921.29C1938.32 1451.24 1952.91 1438.26 1953.72 1421.24C1953.72 1420.43 1953.72 1418.81 1953.72 1417.99V1223.4Z" fill="#697584"/>
<path d="M1755.11 1353.13C1775.25 1353.13 1791.59 1336.79 1791.59 1316.64C1791.59 1296.49 1775.25 1280.16 1755.11 1280.16C1734.96 1280.16 1718.62 1296.49 1718.62 1316.64C1718.62 1336.79 1734.96 1353.13 1755.11 1353.13Z" fill="#48525E"/>
<path d="M397.197 1328.81C363.149 1328.81 332.342 1323.13 332.342 1255.83V703.683C137.777 692.332 -10.5794 526.119 0.770278 331.529C8.87717 197.748 91.5675 79.3721 215.603 27.4813C395.576 -47.9225 602.302 37.2108 676.885 217.207C751.469 395.582 667.968 601.523 489.616 677.738C452.324 693.143 412.601 702.872 372.877 704.494V1255.83C372.877 1275.29 379.362 1288.27 397.197 1288.27H583.656C602.302 1288.27 609.598 1328.81 583.656 1328.81H397.197ZM231.006 63.967C72.111 131.263 -3.28318 314.502 64.0041 474.229C131.291 633.955 314.507 708.548 474.213 641.252C633.919 573.956 708.502 390.717 641.215 230.99C592.574 115.047 478.266 39.6432 352.61 39.6432C311.264 39.6432 269.919 47.7511 231.006 63.967Z" fill="#4B5460"/>
<path d="M348.559 607.2C487.356 607.2 599.873 494.668 599.873 355.854C599.873 217.039 487.356 104.508 348.559 104.508C209.762 104.508 97.2451 217.039 97.2451 355.854C97.2451 494.668 209.762 607.2 348.559 607.2Z" fill="#E4B22D"/>
<path d="M348.993 582.962C474.358 582.962 575.986 481.321 575.986 355.94C575.986 230.559 474.358 128.918 348.993 128.918C223.628 128.918 122 230.559 122 355.94C122 481.321 223.628 582.962 348.993 582.962Z" fill="#D4A527"/>
<circle cx="1286.5" cy="1295.42" r="273.5" fill="#3F4751"/>
<path d="M380.863 331.407C369.272 345.339 348.278 390.628 338 413.145C371.24 377.993 390.703 391.122 434.659 413.145C481.07 436.397 536.829 415.705 545.533 376.934C557.561 323.36 524.539 292.171 469.649 288.208C419.795 284.609 394.208 315.364 380.867 331.401L380.863 331.407Z" fill="#AD733B"/>
<path d="M317.137 379.429C328.728 365.497 349.722 320.208 360 297.691C326.76 332.843 307.297 319.714 263.341 297.691C216.93 274.439 161.171 295.131 152.467 333.902C140.439 387.476 173.461 418.665 228.351 422.628C278.205 426.227 303.792 395.472 317.133 379.435L317.137 379.429Z" fill="#AD733B"/>
<path d="M323.887 432.607L321.665 436.95L323.901 441.287C353.083 497.89 422.032 519.072 477.68 490.821C499.131 480.087 515.845 462.343 527.157 441.458L529.539 437.06L527.261 432.607C507.775 394.516 467.996 370.678 425.574 370.678C383.152 370.678 343.373 394.516 323.887 432.607ZM476.583 448.771C479.396 443.338 481.356 437.362 482.296 431.011C484.157 432.959 485.943 435.001 487.634 437.11C484.318 441.444 480.607 445.337 476.583 448.771ZM378.361 451.217C373.243 447.279 368.695 442.513 364.384 436.948C366.499 434.242 368.718 431.677 371.055 429.294C371.995 437.237 374.54 444.659 378.361 451.217ZM412.021 416.663C412.021 417.112 411.807 417.807 411.155 418.46C410.502 419.113 409.807 419.325 409.36 419.325C408.913 419.325 408.219 419.113 407.566 418.46C406.913 417.807 406.7 417.112 406.7 416.663C406.7 416.215 406.913 415.52 407.566 414.867C408.219 414.214 408.913 414.002 409.36 414.002C409.807 414.002 410.502 414.214 411.155 414.867C411.807 415.52 412.021 416.215 412.021 416.663Z" fill="#AD733B" stroke="#D4A527" stroke-width="19"/>
<path d="M1322.82 1265.39C1309.08 1282.52 1284.19 1338.21 1272 1365.9C1311.41 1322.68 1334.49 1338.82 1386.61 1365.9C1441.64 1394.49 1507.75 1369.05 1518.08 1321.38C1532.34 1255.5 1493.18 1217.15 1428.1 1212.27C1368.98 1207.85 1338.65 1245.67 1322.83 1265.39L1322.82 1265.39Z" fill="#56616F"/>
<path d="M1250.18 1324.44C1263.92 1307.31 1288.81 1251.62 1301 1223.94C1261.59 1267.16 1238.51 1251.02 1186.39 1223.94C1131.36 1195.34 1065.25 1220.79 1054.92 1268.46C1040.66 1334.34 1079.82 1372.69 1144.9 1377.56C1204.02 1381.99 1234.35 1344.17 1250.17 1324.45L1250.18 1324.44Z" fill="#4B5460"/>
</svg>
