<svg width="703" height="686" viewBox="0 0 703 686" fill="none" xmlns="http://www.w3.org/2000/svg">
<g clip-path="url(#clip0)">
<path d="M140.736 685.207C140.8 685.207 140.853 685.154 140.853 685.09C140.853 685.025 140.8 684.973 140.736 684.973C140.671 684.973 140.619 685.025 140.619 685.09C140.619 685.154 140.671 685.207 140.736 685.207Z" fill="#56616F"/>
<path d="M140.881 685.859C140.881 685.837 140.899 685.82 140.921 685.82C140.943 685.82 140.96 685.837 140.96 685.859C140.96 685.881 140.943 685.899 140.921 685.899C140.899 685.899 140.881 685.881 140.881 685.859ZM141.46 685.614C141.46 685.609 141.464 685.605 141.468 685.605C141.473 685.605 141.477 685.609 141.477 685.614C141.477 685.619 141.473 685.623 141.468 685.623C141.464 685.623 141.46 685.619 141.46 685.614ZM140.938 684.941C140.938 684.909 140.965 684.882 140.997 684.882C141.03 684.882 141.057 684.909 141.057 684.941C141.057 684.974 141.03 685.001 140.997 685.001C140.965 685.001 140.938 684.974 140.938 684.941ZM141.766 684.722C141.766 684.704 141.781 684.689 141.799 684.689C141.817 684.689 141.832 684.704 141.832 684.722C141.832 684.74 141.817 684.755 141.799 684.755C141.781 684.755 141.766 684.74 141.766 684.722Z" fill="#404853"/>
<path d="M141.652 685.058V685.005C141.652 684.966 141.631 684.939 141.591 684.939H141.074C141.036 684.939 141 684.956 141 685.001V685.058H141.652Z" fill="#778391"/>
<path d="M141.652 685.07V685.018C141.652 684.978 141.631 684.952 141.591 684.952H141.074C141.036 684.952 141.017 684.969 141.017 685.013V685.07H141.652Z" fill="#606B78"/>
<path d="M141.263 685.127C141.328 685.127 141.381 685.074 141.381 685.009C141.381 684.944 141.328 684.891 141.263 684.891C141.197 684.891 141.145 684.944 141.145 685.009C141.145 685.074 141.197 685.127 141.263 685.127Z" fill="#E4B22D"/>
<path d="M141.262 685.107C141.316 685.107 141.36 685.063 141.36 685.009C141.36 684.954 141.316 684.91 141.262 684.91C141.207 684.91 141.163 684.954 141.163 685.009C141.163 685.063 141.207 685.107 141.262 685.107Z" fill="#D4A527"/>
<path d="M141.253 685.052V685.038H141.241L141.234 685.052H141.22L141.257 684.97H141.266L141.302 685.052H141.289L141.282 685.038H141.269V685.052H141.253V685.052ZM141.248 685.024H141.275L141.261 684.99L141.248 685.024Z" fill="#AD733B"/>
<path d="M141.403 685.088C141.468 685.088 141.521 685.035 141.521 684.97C141.521 684.905 141.468 684.852 141.403 684.852C141.338 684.852 141.285 684.905 141.285 684.97C141.285 685.035 141.338 685.088 141.403 685.088Z" fill="#E4B22D"/>
<path d="M141.402 685.067C141.456 685.067 141.5 685.023 141.5 684.969C141.5 684.914 141.456 684.87 141.402 684.87C141.347 684.87 141.303 684.914 141.303 684.969C141.303 685.023 141.347 685.067 141.402 685.067Z" fill="#D4A527"/>
<path d="M141.393 685.012V684.998H141.381L141.374 685.012H141.36L141.397 684.93H141.406L141.442 685.012H141.429L141.422 684.998H141.41V685.012H141.393ZM141.388 684.984H141.415L141.401 684.95L141.388 684.984Z" fill="#AD733B"/>
<path d="M141 685.465C141 685.498 141.017 685.535 141.074 685.535H141.6C141.636 685.535 141.67 685.511 141.67 685.46V685.119C141.67 685.092 141.659 685.053 141.604 685.053H141.056C141.041 685.053 141.021 685.04 141.021 685.022C141.021 685.017 141 685.012 141 685.031V685.465Z" fill="black" fill-opacity="0.651"/>
<path d="M141 685.429C141 685.462 141.017 685.499 141.074 685.499H141.6C141.636 685.499 141.67 685.475 141.67 685.425V685.083C141.67 685.056 141.659 685.017 141.604 685.017H141.056C141.041 685.017 141.02 685.005 141.02 684.987C141.02 684.982 141 684.976 141 684.996V685.429Z" fill="#778391"/>
<path d="M141 685.43C141 685.463 141.017 685.5 141.074 685.5H141.6C141.636 685.5 141.67 685.475 141.67 685.425V685.097C141.67 685.07 141.66 685.031 141.604 685.031C141.549 685.031 141.067 685.03 141.051 685.03C141.019 685.03 141.002 685.007 141.002 684.988C141.002 684.983 141 684.986 141 684.992C141 684.997 141 685.397 141 685.43Z" fill="#606B78"/>
<path d="M141.013 685.417C141.025 685.443 141.039 685.46 141.074 685.46H141.569C141.598 685.46 141.631 685.441 141.631 685.412V685.119C141.631 685.105 141.619 685.075 141.591 685.075H141.052C141.039 685.075 141.019 685.066 141.004 685.054" stroke="#444D59" stroke-opacity="0.38" stroke-width="0.00619195" stroke-linecap="round" stroke-linejoin="round" stroke-dasharray="0.01 0.02"/>
<path d="M141.679 685.229C141.68 685.22 141.673 685.212 141.664 685.211C141.663 685.211 141.662 685.211 141.661 685.211H141.596C141.556 685.212 141.524 685.246 141.525 685.285C141.525 685.336 141.564 685.36 141.596 685.36H141.661C141.67 685.36 141.678 685.353 141.679 685.344C141.679 685.344 141.679 685.343 141.679 685.342V685.229Z" fill="black" fill-opacity="0.388"/>
<path d="M141.688 685.215C141.688 685.206 141.682 685.198 141.673 685.197C141.672 685.197 141.671 685.197 141.67 685.197H141.6C141.56 685.199 141.529 685.232 141.53 685.272C141.53 685.322 141.568 685.346 141.6 685.346H141.67C141.679 685.347 141.687 685.34 141.688 685.331C141.688 685.33 141.688 685.329 141.688 685.329V685.215Z" fill="#778391"/>
<path d="M141.688 685.224C141.688 685.215 141.682 685.207 141.673 685.206C141.672 685.206 141.671 685.206 141.67 685.206H141.604C141.564 685.207 141.533 685.241 141.534 685.281C141.534 685.331 141.568 685.346 141.6 685.346H141.67C141.67 685.346 141.688 685.338 141.688 685.329V685.224Z" fill="#697584"/>
<path d="M141.58 685.294C141.591 685.294 141.6 685.285 141.6 685.275C141.6 685.264 141.591 685.255 141.58 685.255C141.569 685.255 141.561 685.264 141.561 685.275C141.561 685.285 141.569 685.294 141.58 685.294Z" fill="#48525E"/>
<path d="M141.339 685.413C141.418 685.413 141.482 685.349 141.482 685.27C141.482 685.192 141.418 685.128 141.339 685.128C141.261 685.128 141.197 685.192 141.197 685.27C141.197 685.349 141.261 685.413 141.339 685.413Z" fill="#56616F"/>
<path d="M141.339 685.413C141.418 685.413 141.482 685.349 141.482 685.27C141.482 685.192 141.418 685.128 141.339 685.128C141.261 685.128 141.197 685.192 141.197 685.27C141.197 685.349 141.261 685.413 141.339 685.413Z" fill="#56616F"/>
<path d="M141.339 685.399C141.304 685.399 141.271 685.385 141.246 685.36H141.432C141.408 685.385 141.374 685.399 141.339 685.399ZM141.463 685.306L141.341 685.171L141.214 685.302C141.211 685.291 141.21 685.281 141.21 685.27C141.21 685.198 141.268 685.141 141.339 685.141C141.411 685.141 141.469 685.199 141.468 685.27C141.468 685.282 141.467 685.294 141.463 685.306Z" fill="#4B5460"/>
<path d="M141.276 685.316H141.399L141.338 685.255L141.276 685.316Z" fill="#4B5460"/>
<path d="M141.436 685.356L141.436 685.356C141.388 685.409 141.306 685.414 141.253 685.366C141.2 685.318 141.195 685.237 141.243 685.183C141.247 685.179 141.251 685.175 141.255 685.171L141.256 685.171L141.436 685.356V685.356Z" fill="#22262C" fill-opacity="0.278"/>
<path d="M141.93 685.551C141.983 685.551 142.026 685.508 142.026 685.455C142.026 685.402 141.983 685.359 141.93 685.359C141.877 685.359 141.834 685.402 141.834 685.455C141.834 685.508 141.877 685.551 141.93 685.551Z" fill="#3E4049"/>
</g>
<path d="M81.6079 547.474C81.6079 535.934 90.84 526.701 102.38 526.701C113.92 526.701 123.152 535.934 123.152 547.474C123.152 559.014 113.92 568.246 102.38 568.246C90.84 568.246 81.6079 559.014 81.6079 547.474ZM547.828 418.224C547.828 415.686 549.905 413.608 552.444 413.608C554.983 413.608 557.06 415.686 557.06 418.224C557.06 420.763 554.983 422.841 552.444 422.841C549.905 422.841 547.828 420.763 547.828 418.224ZM88.532 133.184C88.532 115.874 102.38 102.026 119.69 102.026C137 102.026 150.849 115.874 150.849 133.184C150.849 150.494 137 164.342 119.69 164.342C102.38 164.342 88.532 150.494 88.532 133.184ZM547.828 17.7828C547.828 8.31993 555.675 0.472656 565.138 0.472656C574.601 0.472656 582.448 8.31993 582.448 17.7828C582.448 27.2457 574.601 35.093 565.138 35.093C555.675 35.093 547.828 27.2457 547.828 17.7828Z" fill="#404853"/>
<path d="M264.572 258.31V237.076C264.572 221.151 255.802 210.534 239.876 210.534H31.2313C15.9984 210.534 1.22705 217.458 1.22705 235.23V258.31H264.572V258.31Z" fill="#778391"/>
<path d="M264.54 263.311V242.077C264.54 226.152 255.77 215.535 239.845 215.535H31.1995C15.9666 215.535 7.65771 218.074 7.65771 239.539C7.65771 261.003 8.11932 263.311 8.11932 263.311H264.54V263.311Z" fill="#606B78"/>
<path d="M118.348 176.238H446.087C451.164 176.238 455.319 180.393 455.319 185.47V259.327C455.319 264.405 451.164 268.559 446.087 268.559H118.348C113.27 268.559 109.116 264.405 109.116 259.327V185.47C109.116 180.393 113.27 176.238 118.348 176.238Z" fill="#4B5460"/>
<path d="M395.399 224.218C395.399 217.755 400.477 212.678 406.939 212.678C413.402 212.678 418.48 217.755 418.48 224.218C418.48 230.68 413.402 235.758 406.939 235.758C400.477 235.758 395.399 230.68 395.399 224.218ZM360.779 224.218C360.779 217.755 365.857 212.678 372.319 212.678C378.782 212.678 383.859 217.755 383.859 224.218C383.859 230.68 378.782 235.758 372.319 235.758C365.857 235.758 360.779 230.68 360.779 224.218ZM326.159 224.218C326.159 217.755 331.236 212.678 337.699 212.678C344.161 212.678 349.239 217.755 349.239 224.218C349.239 230.68 344.161 235.758 337.699 235.758C331.236 235.758 326.159 230.68 326.159 224.218ZM291.538 224.218C291.538 217.755 296.616 212.678 303.079 212.678C309.541 212.678 314.619 217.755 314.619 224.218C314.619 230.68 309.541 235.758 303.079 235.758C296.616 235.758 291.538 230.68 291.538 224.218ZM256.918 224.218C256.918 217.755 261.996 212.678 268.458 212.678C274.921 212.678 279.998 217.755 279.998 224.218C279.998 230.68 274.921 235.758 268.458 235.758C261.996 235.758 256.918 230.68 256.918 224.218ZM222.298 224.218C222.298 217.755 227.375 212.678 233.838 212.678C240.3 212.678 245.378 217.755 245.378 224.218C245.378 230.68 240.3 235.758 233.838 235.758C227.375 235.758 222.298 230.68 222.298 224.218ZM187.677 224.218C187.677 217.755 192.755 212.678 199.218 212.678C205.68 212.678 210.758 217.755 210.758 224.218C210.758 230.68 205.68 235.758 199.218 235.758C192.755 235.758 187.677 230.68 187.677 224.218ZM153.057 224.218C153.057 217.755 158.135 212.678 164.597 212.678C171.06 212.678 176.137 217.755 176.137 224.218C176.137 230.68 171.06 235.758 164.597 235.758C158.135 235.758 153.057 230.68 153.057 224.218Z" fill="#56616F"/>
<path d="M264.462 275.553H686.138C691.215 275.553 695.37 279.707 695.37 284.785V411.033C695.37 416.111 691.215 420.266 686.138 420.266H264.462C259.384 420.266 255.23 416.111 255.23 411.033V284.785C255.23 279.707 259.384 275.553 264.462 275.553V275.553Z" fill="#191A20" fill-opacity="0.42"/>
<path d="M256.96 261.264H693.176C698.254 261.264 702.408 265.418 702.408 270.496V396.745C702.408 401.822 698.254 405.977 693.176 405.977H256.96C251.882 405.977 247.728 401.822 247.728 396.745V270.496C247.728 265.418 251.882 261.264 256.96 261.264V261.264Z" fill="#D52F2F"/>
<path d="M590.534 336.892C590.534 326.736 598.612 318.658 608.537 318.428C618.692 318.428 626.77 326.506 627.001 336.43C627.001 346.585 618.923 354.664 608.998 354.894H608.768C598.843 355.125 590.534 347.047 590.534 336.892ZM535.834 336.892C535.834 326.736 543.912 318.658 553.837 318.428C563.761 318.197 572.07 326.506 572.301 336.43C572.301 346.585 564.223 354.664 554.298 354.894H554.067C544.143 355.125 535.834 347.047 535.834 336.892ZM481.134 336.892C481.134 326.736 489.212 318.658 499.137 318.428C509.061 318.197 517.37 326.506 517.601 336.43C517.601 346.585 509.523 354.664 499.598 354.894H499.367C489.443 355.125 481.134 347.047 481.134 336.892ZM426.434 336.892C426.434 326.736 434.512 318.658 444.436 318.428C454.361 318.197 462.67 326.506 462.901 336.43C462.901 346.585 454.823 354.664 444.898 354.894H444.667C434.743 355.125 426.434 347.047 426.434 336.892ZM371.734 336.892C371.734 326.736 379.812 318.658 389.736 318.428C399.661 318.197 407.97 326.506 408.201 336.43C408.201 346.585 400.122 354.664 390.198 354.894H389.967C380.043 355.125 371.734 347.047 371.734 336.892ZM317.034 336.892C317.034 326.736 325.112 318.658 335.036 318.428C344.961 318.197 353.27 326.506 353.5 336.43C353.5 346.585 345.422 354.664 335.498 354.894H335.267C325.343 355.125 317.034 347.047 317.034 336.892Z" fill="white"/>
<path d="M1.22705 422.305C1.22705 435.461 8.15112 450.693 31.2313 450.693H254.879C269.419 450.693 283.267 440.769 283.267 420.689V282.9C283.267 272.053 279.113 256.358 256.725 256.358H24.3073C17.8448 256.358 10.2283 251.05 10.2283 243.895C10.2283 241.818 1.45785 239.74 1.45785 247.357L1.22705 422.305V422.305Z" fill="#23242C" fill-opacity="0.522"/>
<path d="M0.743497 408.593C0.743497 421.748 7.66756 436.751 30.7478 436.751H242.624C257.165 436.751 270.782 427.057 270.782 406.746V269.419C270.782 258.571 266.628 243.108 244.24 243.108C221.852 243.108 29.1322 243.108 22.6697 243.108C16.2072 243.108 8.35997 237.799 8.35997 230.644C8.35997 222.566 0.512695 226.721 0.512695 234.337V408.593H0.743497V408.593Z" fill="#778391"/>
<path d="M0.870117 408.31C0.870117 421.465 7.79418 436.698 30.8744 436.698H242.751C257.291 436.698 270.909 426.774 270.909 406.694V273.29C270.909 262.443 266.754 246.748 244.366 246.748H23.7195C11.0254 246.748 3.17814 238.439 3.17814 231.284C3.17814 224.591 0.870117 228.515 0.870117 232.669C0.870117 236.824 0.870117 395.154 0.870117 408.31V408.31Z" fill="#606B78"/>
<path d="M7.62923 404.468C12.9377 419.471 18.4769 420.625 33.0175 420.625H229.199C240.509 420.625 254.588 413.701 254.588 402.16V284.451C254.588 279.143 249.741 265.987 238.431 265.987H28.4014C19.4001 265.987 3.01318 260.91 3.01318 249.831" stroke="#444D59" stroke-opacity="0.38" stroke-width="0.00630915" stroke-linecap="round" stroke-linejoin="round" stroke-dasharray="0.01 0.02"/>
<path d="M275.164 327.006C275.394 323.314 272.856 320.313 269.163 319.852C268.701 319.852 268.47 319.852 268.009 319.852H241.467C225.31 320.313 212.847 333.7 213.078 349.856C213.078 370.166 228.542 379.86 241.467 379.86H268.009C271.702 380.091 274.933 377.321 275.164 373.398C275.164 373.167 275.164 372.936 275.164 372.705V327.006V327.006Z" fill="black" fill-opacity="0.388"/>
<path d="M277.673 321.291C277.904 317.598 275.135 314.597 271.673 314.136C271.211 314.136 270.98 314.136 270.519 314.136H244.207C228.051 314.597 215.126 327.984 215.588 344.14C215.588 364.451 231.282 374.144 244.207 374.144H270.749C274.442 374.375 277.673 371.605 277.904 367.913C277.904 367.682 277.904 367.451 277.904 367.22L277.673 321.291Z" fill="#778391"/>
<path d="M277.766 326.293C277.996 322.6 275.227 319.599 271.765 319.138C271.303 319.138 271.072 319.138 270.611 319.138H243.838C232.067 319.138 215.218 326.523 215.218 346.834C215.218 367.144 230.682 374.53 243.838 374.53H270.611C274.304 374.761 277.535 371.991 277.766 368.298C277.766 368.068 277.766 367.837 277.766 367.606V326.293Z" fill="#697584"/>
<path d="M235.443 353.408C239.904 353.408 243.521 349.895 243.521 345.561C243.521 341.227 239.904 337.714 235.443 337.714C230.981 337.714 227.365 341.227 227.365 345.561C227.365 349.895 230.981 353.408 235.443 353.408Z" fill="#48525E"/>
<circle cx="138.492" cy="342.822" r="58.7295" fill="#3F4751"/>
<path d="M146.248 336.443C143.287 340.118 137.925 352.065 135.299 358.005C143.79 348.732 148.762 352.196 159.99 358.005C171.845 364.139 186.088 358.681 188.312 348.453C191.384 334.32 182.949 326.093 168.928 325.047C156.193 324.098 149.657 332.211 146.249 336.441L146.248 336.443Z" fill="#56616F"/>
<path d="M130.734 349.112C133.695 345.436 139.058 333.489 141.683 327.549C133.192 336.822 128.221 333.359 116.992 327.549C105.137 321.415 90.8942 326.874 88.6708 337.102C85.5985 351.234 94.0335 359.462 108.055 360.507C120.79 361.457 127.325 353.344 130.733 349.113L130.734 349.112Z" fill="#4B5460"/>
<defs>
<clipPath id="clip0">
<rect width="1.41517" height="1.41517" fill="white" transform="translate(140.614 684.586)"/>
</clipPath>
</defs>
</svg>
