<svg width="548" height="467" viewBox="0 0 548 467" fill="none" xmlns="http://www.w3.org/2000/svg">
<path d="M100.358 451.792C100.358 443.347 107.114 436.591 115.56 436.591C124.005 436.591 130.761 443.347 130.761 451.792C130.761 460.237 124.005 466.993 115.56 466.993C107.114 466.993 100.358 460.237 100.358 451.792ZM509.102 407.877C509.102 406.019 510.622 404.499 512.48 404.499C514.338 404.499 515.858 406.019 515.858 407.877C515.858 409.735 514.338 411.255 512.48 411.255C510.622 411.255 509.102 409.735 509.102 407.877ZM105.425 97.9412C105.425 85.2735 115.56 75.1393 128.227 75.1393C140.895 75.1393 151.029 85.2735 151.029 97.9412C151.029 110.609 140.895 120.743 128.227 120.743C115.56 120.743 105.425 110.609 105.425 97.9412ZM441.541 13.4899C441.541 6.56495 447.284 0.822266 454.209 0.822266C461.134 0.822266 466.877 6.56495 466.877 13.4899C466.877 20.4149 461.134 26.1576 454.209 26.1576C447.284 26.1576 441.541 20.4149 441.541 13.4899Z" fill="#404853"/>
<path d="M164.95 187.072V173.728C164.95 163.763 159.546 157.176 149.411 157.176H19.0187C9.56014 157.176 0.270508 159.372 0.270508 170.688C0.270508 182.004 0.270508 187.072 0.270508 187.072H164.95Z" fill="#778391"/>
<path d="M164.795 190.318V176.974C164.795 167.009 159.39 160.422 149.256 160.422H18.8634C9.40483 160.422 3.83105 164.138 3.83105 175.285C3.66214 180.352 3.99995 185.251 4.50666 190.318H164.795Z" fill="#606B78"/>
<path d="M135.102 109.566H514.964C524.253 109.566 531.854 117.167 531.854 126.457V379.135C531.854 388.424 524.253 396.025 514.964 396.025H135.102C125.813 396.025 118.212 388.424 118.212 379.135V126.457C118.212 117.167 125.813 109.566 135.102 109.566Z" fill="black" fill-opacity="0.68"/>
<path d="M119.142 97.123H530.926C540.216 97.123 547.817 104.724 547.817 114.013V366.691C547.817 375.981 540.216 383.582 530.926 383.582H119.142C109.853 383.582 102.252 375.981 102.252 366.691V114.013C102.252 104.555 109.684 97.123 119.142 97.123V97.123Z" fill="#606B78"/>
<path d="M270.026 404.42H382.008C386.738 404.42 390.454 408.136 390.454 412.865V419.959C390.454 424.688 386.738 428.404 382.008 428.404H270.026C265.297 428.404 261.581 424.688 261.581 419.959V412.865C261.581 408.136 265.297 404.42 270.026 404.42V404.42Z" fill="#606B78"/>
<path d="M121.854 105.238H529.584C535.158 105.238 539.719 109.799 539.719 115.372V332.75H111.72V115.372C111.72 109.799 116.28 105.238 121.854 105.238V105.238Z" fill="#505B67"/>
<path d="M325.207 369.367C331.364 369.367 336.355 364.376 336.355 358.22C336.355 352.063 331.364 347.072 325.207 347.072C319.051 347.072 314.06 352.063 314.06 358.22C314.06 364.376 319.051 369.367 325.207 369.367Z" fill="#4C5661"/>
<path d="M62.4873 157.792C62.4873 35.169 226.998 0.375108 305.876 97.3251" stroke="#D6E1EE" stroke-width="0.00609756"/>
<path d="M295.124 93.7001C295.124 93.7001 306.272 99.7806 307.792 98.4294C309.312 97.0782 306.272 85.7617 306.272 85.7617" stroke="#D6E1EE" stroke-width="0.00609756"/>
<path d="M321.503 169.358C338.014 169.358 351.399 155.973 351.399 139.462C351.399 122.951 338.014 109.566 321.503 109.566C304.992 109.566 291.607 122.951 291.607 139.462C291.607 155.973 304.992 169.358 321.503 169.358Z" fill="#E4B22D"/>
<path d="M320.829 163.657C334.541 163.657 345.657 152.541 345.657 138.829C345.657 125.116 334.541 114 320.829 114C307.116 114 296 125.116 296 138.829C296 152.541 307.116 163.657 320.829 163.657Z" fill="#D4A527"/>
<path d="M408.37 297.737C404.655 297.737 401.614 294.697 401.614 290.981V201.125C401.614 200.449 401.783 199.605 401.952 198.929C401.108 197.409 401.783 195.382 403.303 194.706C403.81 194.538 404.317 194.369 404.824 194.369H460.561C462.25 194.369 463.77 195.72 463.77 197.578C463.77 198.084 463.602 198.591 463.433 199.098C463.602 199.773 463.77 200.449 463.77 201.294V291.15C463.77 294.866 460.73 297.906 457.014 297.906H408.37V297.737V297.737ZM258.723 297.568C255.007 297.568 251.967 294.528 251.967 290.812V164.473C251.967 160.757 255.007 157.717 258.723 157.717H380.502C384.217 157.717 387.258 160.757 387.258 164.473V290.981C387.258 294.697 384.217 297.737 380.502 297.737L258.723 297.568ZM212.613 297.568C208.897 297.568 205.856 294.528 205.856 290.812V197.747C205.856 194.031 208.897 190.991 212.613 190.991H222.916C226.631 190.991 229.672 194.031 229.672 197.747V290.812C229.672 294.528 226.631 297.568 222.916 297.568H212.613V297.568ZM408.37 186.261C404.655 186.261 401.614 183.221 401.614 179.505V164.473C401.614 160.757 404.655 157.717 408.37 157.717H456.845C460.561 157.717 463.602 160.757 463.602 164.473V179.505C463.602 183.221 460.561 186.261 456.845 186.261H408.37ZM212.613 186.261C208.897 186.261 205.856 183.221 205.856 179.505V164.473C205.856 160.757 208.897 157.717 212.613 157.717H222.916C226.631 157.717 229.672 160.757 229.672 164.473V179.505C229.672 183.221 226.631 186.261 222.916 186.261H212.613Z" fill="#3F4853"/>
<path d="M209.366 185.85H226.088C229.804 185.85 232.844 188.89 232.844 192.606V285.671C232.844 289.387 229.804 292.427 226.088 292.427H209.366C205.651 292.427 202.61 289.387 202.61 285.671V192.606C202.61 188.89 205.651 185.85 209.366 185.85V185.85Z" fill="#D6E1EE"/>
<path d="M209.366 152.848H226.088C229.804 152.848 232.844 155.888 232.844 159.604V174.805C232.844 178.521 229.804 181.561 226.088 181.561H209.366C205.651 181.561 202.61 178.521 202.61 174.805V159.604C202.61 155.888 205.651 152.848 209.366 152.848Z" fill="#CB4F51"/>
<path d="M208.832 272.879C208.832 267.981 212.717 264.096 217.615 264.096C222.513 264.096 226.398 267.981 226.398 272.879C226.398 277.777 222.513 281.662 217.615 281.662C212.717 281.493 208.832 277.608 208.832 272.879ZM212.041 252.104C212.041 249.064 214.575 246.53 217.615 246.53C220.655 246.53 223.189 249.064 223.189 252.104C223.189 255.144 220.655 257.678 217.615 257.678C214.406 257.678 212.041 255.313 212.041 252.104ZM212.041 221.871C212.041 218.83 214.575 216.297 217.615 216.297C220.655 216.297 223.189 218.83 223.189 221.871C223.189 224.911 220.655 227.444 217.615 227.444C214.406 227.444 212.041 224.911 212.041 221.871ZM212.041 202.785C212.041 199.744 214.575 197.211 217.615 197.211C220.655 197.211 223.189 199.744 223.189 202.785C223.189 205.825 220.655 208.358 217.615 208.358C214.406 208.358 212.041 205.825 212.041 202.785Z" fill="#BECEE2"/>
<path d="M255.353 152.848H383.381C387.097 152.848 390.137 155.888 390.137 159.604V286.112C390.137 289.828 387.097 292.868 383.381 292.868H255.353C251.637 292.868 248.597 289.828 248.597 286.112V159.604C248.597 155.888 251.637 152.848 255.353 152.848Z" fill="#D6E1EE"/>
<path d="M375.863 280.179C375.019 280.179 374.343 279.503 374.343 278.659C374.343 277.814 375.019 277.139 375.863 277.139C376.708 277.139 377.383 277.814 377.383 278.659C377.383 279.503 376.708 280.179 375.863 280.179ZM359.987 280.179C359.142 280.179 358.466 279.503 358.466 278.659C358.466 277.814 359.142 277.139 359.987 277.139H369.445C370.29 277.139 370.965 277.814 370.965 278.659C370.965 279.503 370.29 280.179 369.445 280.179H359.987ZM336.171 280.179C335.327 280.179 334.651 279.503 334.651 278.659C334.651 277.814 335.327 277.139 336.171 277.139H339.38C340.225 277.139 340.901 277.814 340.901 278.659C340.901 279.503 340.225 280.179 339.38 280.179H336.171ZM301.04 280.179C300.195 280.179 299.519 279.503 299.519 278.659C299.519 277.814 300.195 277.139 301.04 277.139H315.396C316.241 277.139 316.916 277.814 316.916 278.659C316.916 279.503 316.241 280.179 315.396 280.179H301.04ZM280.433 280.179C279.589 280.179 278.913 279.503 278.913 278.659C278.913 277.814 279.589 277.139 280.433 277.139H294.79C295.635 277.139 296.31 277.814 296.31 278.659C296.31 279.503 295.635 280.179 294.79 280.179H280.433ZM266.077 280.179C265.232 280.179 264.557 279.503 264.557 278.659C264.557 277.814 265.232 277.139 266.077 277.139H274.015C274.86 277.139 275.535 277.814 275.535 278.659C275.535 279.503 274.86 280.179 274.015 280.179H266.077ZM375.863 264.302C375.019 264.302 374.343 263.627 374.343 262.782C374.343 261.938 375.019 261.262 375.863 261.262C376.708 261.262 377.383 261.938 377.383 262.782C377.383 263.627 376.708 264.302 375.863 264.302ZM359.987 264.302C359.142 264.302 358.466 263.627 358.466 262.782C358.466 261.938 359.142 261.262 359.987 261.262H369.614C370.458 261.262 371.134 261.938 371.134 262.782C371.134 263.627 370.458 264.302 369.614 264.302H359.987ZM336.171 264.302C335.327 264.302 334.651 263.627 334.651 262.782C334.651 261.938 335.327 261.262 336.171 261.262H339.38C340.225 261.262 340.901 261.938 340.901 262.782C340.901 263.627 340.225 264.302 339.38 264.302H336.171ZM301.04 264.302C300.195 264.302 299.519 263.627 299.519 262.782C299.519 261.938 300.195 261.262 301.04 261.262H315.396C316.241 261.262 316.916 261.938 316.916 262.782C316.916 263.627 316.241 264.302 315.396 264.302H301.04ZM280.433 264.302C279.589 264.302 278.913 263.627 278.913 262.782C278.913 261.938 279.589 261.262 280.433 261.262H294.79C295.635 261.262 296.31 261.938 296.31 262.782C296.31 263.627 295.635 264.302 294.79 264.302H280.433ZM266.077 264.302C265.232 264.302 264.557 263.627 264.557 262.782C264.557 261.938 265.232 261.262 266.077 261.262H274.015C274.86 261.262 275.535 261.938 275.535 262.782C275.535 263.627 274.86 264.302 274.015 264.302H266.077ZM375.863 248.425C375.019 248.425 374.343 247.75 374.343 246.905C374.343 246.061 375.019 245.385 375.863 245.385C376.708 245.385 377.383 246.061 377.383 246.905C377.383 247.75 376.708 248.425 375.863 248.425ZM359.987 248.425C359.142 248.425 358.466 247.75 358.466 246.905C358.466 246.061 359.142 245.385 359.987 245.385H369.445C370.29 245.385 370.965 246.061 370.965 246.905C370.965 247.75 370.29 248.425 369.445 248.425H359.987ZM336.171 248.425C335.327 248.425 334.651 247.75 334.651 246.905C334.651 246.061 335.327 245.385 336.171 245.385H339.38C340.225 245.385 340.901 246.061 340.901 246.905C340.901 247.75 340.225 248.425 339.38 248.425H336.171ZM301.04 248.425C300.195 248.425 299.519 247.75 299.519 246.905C299.519 246.061 300.195 245.385 301.04 245.385H315.396C316.241 245.385 316.916 246.061 316.916 246.905C316.916 247.75 316.241 248.425 315.396 248.425H301.04ZM280.433 248.425C279.589 248.425 278.913 247.75 278.913 246.905C278.913 246.061 279.589 245.385 280.433 245.385H294.79C295.635 245.385 296.31 246.061 296.31 246.905C296.31 247.75 295.635 248.425 294.79 248.425H280.433ZM266.077 248.425C265.232 248.425 264.557 247.75 264.557 246.905C264.557 246.061 265.232 245.385 266.077 245.385H274.015C274.86 245.385 275.535 246.061 275.535 246.905C275.535 247.75 274.86 248.425 274.015 248.425H266.077ZM375.863 232.38C375.019 232.38 374.343 231.704 374.343 230.859C374.343 230.015 375.019 229.339 375.863 229.339C376.708 229.339 377.383 230.015 377.383 230.859C377.383 231.704 376.708 232.38 375.863 232.38ZM359.987 232.38C359.142 232.38 358.466 231.704 358.466 230.859C358.466 230.015 359.142 229.339 359.987 229.339H369.445C370.29 229.339 370.965 230.015 370.965 230.859C370.965 231.704 370.29 232.38 369.445 232.38H359.987ZM336.171 232.38C335.327 232.38 334.651 231.704 334.651 230.859C334.651 230.015 335.327 229.339 336.171 229.339H339.38C340.225 229.339 340.901 230.015 340.901 230.859C340.901 231.704 340.225 232.38 339.38 232.38H336.171ZM301.04 232.38C300.195 232.38 299.519 231.704 299.519 230.859C299.519 230.015 300.195 229.339 301.04 229.339H315.396C316.241 229.339 316.916 230.015 316.916 230.859C316.916 231.704 316.241 232.38 315.396 232.38H301.04ZM280.433 232.38C279.589 232.38 278.913 231.704 278.913 230.859C278.913 230.015 279.589 229.339 280.433 229.339H294.79C295.635 229.339 296.31 230.015 296.31 230.859C296.31 231.704 295.635 232.38 294.79 232.38H280.433ZM266.077 232.38C265.232 232.38 264.557 231.704 264.557 230.859C264.557 230.015 265.232 229.339 266.077 229.339H274.015C274.86 229.339 275.535 230.015 275.535 230.859C275.535 231.704 274.86 232.38 274.015 232.38H266.077ZM375.863 216.503C375.019 216.503 374.343 215.827 374.343 214.983C374.343 214.138 375.019 213.463 375.863 213.463C376.708 213.463 377.383 214.138 377.383 214.983C377.552 215.827 376.708 216.503 375.863 216.503ZM359.987 216.503C359.142 216.503 358.466 215.827 358.466 214.983C358.466 214.138 359.142 213.463 359.987 213.463H369.614C370.458 213.463 371.134 214.138 371.134 214.983C371.134 215.827 370.458 216.503 369.614 216.503H359.987ZM336.171 216.503C335.327 216.503 334.651 215.827 334.651 214.983C334.651 214.138 335.327 213.463 336.171 213.463H339.38C340.225 213.463 340.901 214.138 340.901 214.983C340.901 215.827 340.225 216.503 339.38 216.503H336.171ZM301.04 216.503C300.195 216.503 299.519 215.827 299.519 214.983C299.519 214.138 300.195 213.463 301.04 213.463H315.396C316.241 213.463 316.916 214.138 316.916 214.983C316.916 215.827 316.241 216.503 315.396 216.503H301.04ZM280.433 216.503C279.589 216.503 278.913 215.827 278.913 214.983C278.913 214.138 279.589 213.463 280.433 213.463H294.79C295.635 213.463 296.31 214.138 296.31 214.983C296.31 215.827 295.635 216.503 294.79 216.503H280.433ZM266.077 216.503C265.232 216.503 264.557 215.827 264.557 214.983C264.557 214.138 265.232 213.463 266.077 213.463H274.015C274.86 213.463 275.535 214.138 275.535 214.983C275.535 215.827 274.86 216.503 274.015 216.503H266.077ZM375.863 200.626C375.019 200.626 374.343 199.95 374.343 199.106C374.343 198.261 375.019 197.586 375.863 197.586C376.708 197.586 377.383 198.261 377.383 199.106C377.552 199.95 376.708 200.626 375.863 200.626ZM359.987 200.626C359.142 200.626 358.466 199.95 358.466 199.106C358.466 198.261 359.142 197.586 359.987 197.586H369.614C370.458 197.586 371.134 198.261 371.134 199.106C371.134 199.95 370.458 200.626 369.614 200.626H359.987ZM336.171 200.626C335.327 200.626 334.651 199.95 334.651 199.106C334.651 198.261 335.327 197.586 336.171 197.586H339.38C340.225 197.586 340.901 198.261 340.901 199.106C340.901 199.95 340.225 200.626 339.38 200.626H336.171ZM301.04 200.626C300.195 200.626 299.519 199.95 299.519 199.106C299.519 198.261 300.195 197.586 301.04 197.586H315.396C316.241 197.586 316.916 198.261 316.916 199.106C316.916 199.95 316.241 200.626 315.396 200.626H301.04ZM280.433 200.626C279.589 200.626 278.913 199.95 278.913 199.106C278.913 198.261 279.589 197.586 280.433 197.586H294.79C295.635 197.586 296.31 198.261 296.31 199.106C296.31 199.95 295.635 200.626 294.79 200.626H280.433ZM266.077 200.626C265.232 200.626 264.557 199.95 264.557 199.106C264.557 198.261 265.232 197.586 266.077 197.586H274.015C274.86 197.586 275.535 198.261 275.535 199.106C275.535 199.95 274.86 200.626 274.015 200.626H266.077ZM375.863 184.749C375.019 184.749 374.343 184.074 374.343 183.229C374.343 182.384 375.019 181.709 375.863 181.709C376.708 181.709 377.383 182.384 377.383 183.229C377.383 184.074 376.708 184.749 375.863 184.749ZM359.987 184.749C359.142 184.749 358.466 184.074 358.466 183.229C358.466 182.384 359.142 181.709 359.987 181.709H369.445C370.29 181.709 370.965 182.384 370.965 183.229C370.965 184.074 370.29 184.749 369.445 184.749H359.987ZM336.171 184.749C335.327 184.749 334.651 184.074 334.651 183.229C334.651 182.384 335.327 181.709 336.171 181.709H339.38C340.225 181.709 340.901 182.384 340.901 183.229C340.901 184.074 340.225 184.749 339.38 184.749H336.171ZM301.04 184.749C300.195 184.749 299.519 184.074 299.519 183.229C299.519 182.384 300.195 181.709 301.04 181.709H315.396C316.241 181.709 316.916 182.384 316.916 183.229C316.916 184.074 316.241 184.749 315.396 184.749H301.04ZM280.433 184.749C279.589 184.749 278.913 184.074 278.913 183.229C278.913 182.384 279.589 181.709 280.433 181.709H294.79C295.635 181.709 296.31 182.384 296.31 183.229C296.31 184.074 295.635 184.749 294.79 184.749H280.433ZM266.077 184.749C265.232 184.749 264.557 184.074 264.557 183.229C264.557 182.384 265.232 181.709 266.077 181.709H274.015C274.86 181.709 275.535 182.384 275.535 183.229C275.535 184.074 274.86 184.749 274.015 184.749H266.077ZM375.863 168.872C375.019 168.872 374.343 168.197 374.343 167.352C374.343 166.508 375.019 165.832 375.863 165.832C376.708 165.832 377.383 166.508 377.383 167.352C377.552 168.197 376.708 168.872 375.863 168.872ZM359.987 168.872C359.142 168.872 358.466 168.197 358.466 167.352C358.466 166.508 359.142 165.832 359.987 165.832H369.445C370.29 165.832 370.965 166.508 370.965 167.352C370.965 168.197 370.29 168.872 369.445 168.872H359.987ZM336.171 168.872C335.327 168.872 334.651 168.197 334.651 167.352C334.651 166.508 335.327 165.832 336.171 165.832H339.38C340.225 165.832 340.901 166.508 340.901 167.352C340.901 168.197 340.225 168.872 339.38 168.872H336.171ZM301.04 168.872C300.195 168.872 299.519 168.197 299.519 167.352C299.519 166.508 300.195 165.832 301.04 165.832H315.396C316.241 165.832 316.916 166.508 316.916 167.352C316.916 168.197 316.241 168.872 315.396 168.872H301.04ZM280.433 168.872C279.589 168.872 278.913 168.197 278.913 167.352C278.913 166.508 279.589 165.832 280.433 165.832H294.79C295.635 165.832 296.31 166.508 296.31 167.352C296.31 168.197 295.635 168.872 294.79 168.872H280.433ZM266.077 168.872C265.232 168.872 264.557 168.197 264.557 167.352C264.557 166.508 265.232 165.832 266.077 165.832H274.015C274.86 165.832 275.535 166.508 275.535 167.352C275.535 168.197 274.86 168.872 274.015 168.872H266.077Z" fill="#BECEE2"/>
<path d="M404.944 189.096H459.837C463.553 189.096 466.593 192.136 466.593 195.852V285.708C466.593 289.424 463.553 292.464 459.837 292.464H404.944C401.228 292.464 398.188 289.424 398.188 285.708V195.852C398.188 192.136 401.228 189.096 404.944 189.096V189.096Z" fill="#D6E1EE"/>
<path d="M418.803 273.552C418.803 271.863 420.154 270.343 422.012 270.343C423.87 270.343 425.221 271.694 425.221 273.552C425.221 275.41 423.87 276.761 422.012 276.761C420.323 276.761 418.803 275.41 418.803 273.552ZM407.655 267.303C407.655 262.911 411.202 259.364 415.594 259.364C419.985 259.364 423.532 262.911 423.532 267.303C423.532 267.472 423.532 267.641 423.532 267.81C420.83 266.458 417.452 267.641 416.1 270.512C415.425 272.032 415.425 273.721 416.1 275.241C415.931 275.241 415.763 275.241 415.594 275.241C411.371 275.241 407.655 271.694 407.655 267.303V267.303ZM429.95 275.241C429.106 275.241 428.43 274.566 428.43 273.721C428.43 272.877 429.106 272.201 429.95 272.201H452.246C453.09 272.201 453.766 272.877 453.766 273.721C453.766 274.566 453.09 275.241 452.246 275.241H429.95ZM429.95 270.512C429.106 270.512 428.43 269.836 428.43 268.992C428.43 268.147 429.106 267.472 429.95 267.472H439.409C440.253 267.472 440.929 268.147 440.929 268.992C440.929 269.836 440.253 270.512 439.409 270.512H429.95ZM418.803 243.319C418.803 241.63 420.154 240.11 422.012 240.11C423.87 240.11 425.221 241.461 425.221 243.319C425.221 245.177 423.87 246.528 422.012 246.528C420.323 246.528 418.803 245.177 418.803 243.319ZM429.95 245.008C429.106 245.008 428.43 244.332 428.43 243.488C428.43 242.643 429.106 241.967 429.95 241.967H452.246C453.09 241.967 453.766 242.643 453.766 243.488C453.766 244.332 453.09 245.008 452.246 245.008H429.95ZM407.655 237.069C407.655 232.678 411.202 229.131 415.594 229.131C419.985 229.131 423.532 232.678 423.532 237.069C423.532 237.238 423.532 237.407 423.532 237.576C422.856 237.238 422.012 237.069 421.167 237.069C418.127 237.069 415.594 239.603 415.594 242.643C415.594 243.488 415.763 244.332 416.1 245.008C415.931 245.008 415.763 245.008 415.594 245.008C411.202 245.008 407.655 241.461 407.655 237.069V237.069ZM429.95 240.278C429.106 240.278 428.43 239.603 428.43 238.758C428.43 237.914 429.106 237.238 429.95 237.238H439.409C440.253 237.238 440.929 237.914 440.929 238.758C440.929 239.603 440.253 240.278 439.409 240.278H429.95Z" fill="#BECEE2"/>
<path d="M412.714 202.08H427.07C427.915 202.08 428.591 202.756 428.591 203.6C428.591 204.445 427.915 205.12 427.07 205.12H412.714C411.869 205.12 411.194 204.445 411.194 203.6C411.025 202.756 411.869 202.08 412.714 202.08Z" fill="#BECEE2"/>
<path d="M441.095 202.08H455.452C456.297 202.08 456.972 202.756 456.972 203.6C456.972 204.445 456.297 205.12 455.452 205.12H441.095C440.251 205.12 439.575 204.445 439.575 203.6C439.575 202.756 440.251 202.08 441.095 202.08Z" fill="#BECEE2"/>
<path d="M409.549 212.919V211.399H460.557V212.919H409.549ZM433.364 209.879V197.211H434.884V209.879H433.364Z" fill="#CAD9EA"/>
<path d="M404.944 152.848H459.837C463.553 152.848 466.593 155.888 466.593 159.604V174.805C466.593 178.521 463.553 181.561 459.837 181.561H404.944C401.228 181.561 398.188 178.521 398.188 174.805V159.604C398.188 155.888 401.228 152.848 404.944 152.848V152.848Z" fill="#303740"/>
<path d="M412.692 171.876C411.847 171.876 411.172 171.2 411.172 170.355C411.172 169.511 411.847 168.835 412.692 168.835H442.925C443.77 168.835 444.446 169.511 444.446 170.355C444.446 171.2 443.77 171.876 442.925 171.876H412.692ZM412.692 165.626C411.847 165.626 411.172 164.951 411.172 164.106C411.172 163.262 411.847 162.586 412.692 162.586H427.049C427.893 162.586 428.569 163.262 428.569 164.106C428.569 164.951 427.893 165.626 427.049 165.626H412.692Z" fill="#495463"/>
<path d="M66.4143 205.065C82.9252 205.065 96.31 191.68 96.31 175.169C96.31 158.658 82.9252 145.273 66.4143 145.273C49.9033 145.273 36.5186 158.658 36.5186 175.169C36.5186 191.68 49.9033 205.065 66.4143 205.065Z" fill="#E4B22D"/>
<path d="M65.8287 199.657C79.5411 199.657 90.6573 188.541 90.6573 174.829C90.6573 161.116 79.5411 150 65.8287 150C52.1162 150 41 161.116 41 174.829C41 188.541 52.1162 199.657 65.8287 199.657Z" fill="#D4A527"/>
<path d="M69.4904 172.51C68.2761 173.955 66.0768 178.651 65 180.986C68.4823 177.341 70.5213 178.703 75.1262 180.986C79.9882 183.398 85.8297 181.252 86.7416 177.231C88.0016 171.675 84.5422 168.441 78.7918 168.03C73.5689 167.657 70.8885 170.846 69.4908 172.509L69.4904 172.51Z" fill="#AD733B"/>
<path d="M63.5096 177.49C64.7239 176.045 66.9232 171.349 68 169.014C64.5177 172.659 62.4787 171.297 57.8738 169.014C53.0118 166.602 47.1703 168.748 46.2584 172.769C44.9984 178.325 48.4578 181.559 54.2082 181.97C59.4311 182.343 62.1115 179.154 63.5092 177.491L63.5096 177.49Z" fill="#AD733B"/>
<path d="M324.49 136.51C323.276 137.955 321.077 142.651 320 144.986C323.482 141.341 325.521 142.703 330.126 144.986C334.988 147.398 340.83 145.252 341.742 141.231C343.002 135.675 339.542 132.441 333.792 132.03C328.569 131.657 325.888 134.846 324.491 136.509L324.49 136.51Z" fill="#AD733B"/>
<path d="M318.51 141.49C319.724 140.045 321.923 135.349 323 133.014C319.518 136.659 317.479 135.297 312.874 133.014C308.012 130.602 302.17 132.748 301.258 136.769C299.998 142.325 303.458 145.559 309.208 145.97C314.431 146.343 317.112 143.154 318.509 141.491L318.51 141.49Z" fill="#AD733B"/>
<path d="M0.270508 286.489C0.270508 294.766 4.66197 304.224 19.0187 304.224H151.607C160.728 304.224 169.342 298.144 169.342 285.476V202.714C169.342 195.958 166.639 186.161 152.789 186.161H14.6272C10.5736 186.161 5.84429 182.783 5.84429 178.392C5.84429 177.041 0.270508 175.858 0.270508 180.588V286.489V286.489Z" fill="#23242C" fill-opacity="0.6"/>
<path d="M0.270508 276.267C0.270508 284.544 4.66197 294.002 19.0187 294.002H151.607C160.728 294.002 169.342 287.922 169.342 275.254V194.181C169.342 187.425 166.639 177.628 152.789 177.628H14.6272C10.5736 177.628 4.83087 174.588 4.83087 170.197C4.99978 166.65 0.270508 165.13 0.270508 170.028C0.270508 174.926 0.270508 267.991 0.270508 276.267V276.267Z" fill="#778391"/>
<path d="M0.168902 279.237C0.168902 287.513 4.56037 296.972 18.9171 296.972H151.505C160.626 296.972 169.24 290.891 169.24 278.223V197.15C169.24 190.394 166.538 180.598 152.688 180.598H14.5256C6.58719 180.598 1.18232 175.024 1.18232 170.633C1.18232 170.126 0 169.619 0 169.619C0 169.619 0.168902 270.961 0.168902 279.237V279.237Z" fill="#606B78"/>
<path d="M2.50187 280.195C4.19089 282.728 6.38662 284.924 8.75126 286.782C11.1159 287.795 7.90674 288.978 18.8854 288.978H143.704C150.798 288.978 159.243 284.08 159.243 276.817V202.837C159.243 199.459 156.372 191.859 149.278 191.859H13.3116C9.76467 191.859 6.55553 190.001 4.5287 187.13C4.35979 186.961 6.04882 188.65 5.54211 187.974C5.0354 187.298 2.33296 183.92 2.16406 182.062" stroke="#444D59" stroke-opacity="0.66" stroke-width="0.00609756" stroke-linecap="round" stroke-linejoin="round" stroke-dasharray="0.01 0.02"/>
<path d="M171.501 230.276C171.67 228.08 169.981 226.054 167.785 225.885C167.616 225.885 167.278 225.885 167.109 225.885H150.557C140.423 226.223 132.653 234.668 132.822 244.633C132.822 257.301 142.449 263.381 150.557 263.381H167.109C169.474 263.55 171.332 261.692 171.501 259.496C171.501 259.327 171.501 259.159 171.501 258.99V230.276V230.276Z" fill="black" fill-opacity="0.35"/>
<path d="M173.765 227.03C173.934 224.834 172.245 222.808 170.049 222.639C169.88 222.639 169.542 222.639 169.374 222.639H151.639C141.505 222.976 133.735 231.422 133.904 241.387C133.904 254.055 143.532 260.135 151.639 260.135H169.374C171.738 260.304 173.596 258.446 173.765 256.25C173.765 256.081 173.765 255.912 173.765 255.744V227.03V227.03Z" fill="#778391"/>
<path d="M173.665 229.025C173.834 226.83 172.145 224.972 169.949 224.803C169.78 224.803 169.442 224.803 169.273 224.803H152.721C142.587 225.141 134.817 233.248 134.986 243.044C134.986 255.374 144.614 261.286 152.721 261.286H169.273C171.638 261.455 173.496 259.597 173.665 257.401C173.665 257.232 173.665 257.063 173.665 256.894V229.025V229.025Z" fill="#697584"/>
<path d="M146.543 246.501C149.341 246.501 151.61 244.308 151.61 241.603C151.61 238.898 149.341 236.705 146.543 236.705C143.744 236.705 141.476 238.898 141.476 241.603C141.476 244.308 143.744 246.501 146.543 246.501Z" fill="#48525E"/>
<circle cx="86" cy="241" r="33" fill="#3F4751"/>
<path d="M90.6345 237.417C88.9709 239.482 85.9577 246.195 84.4824 249.533C89.2534 244.322 92.047 246.268 98.356 249.533C105.017 252.979 113.021 249.912 114.27 244.165C115.996 236.224 111.257 231.601 103.378 231.014C96.2225 230.48 92.5501 235.039 90.6352 237.416L90.6345 237.417Z" fill="#56616F"/>
<path d="M81.9172 244.535C83.5808 242.47 86.5941 235.757 88.0693 232.419C83.2983 237.63 80.5048 235.684 74.1957 232.419C67.5344 228.973 59.5312 232.04 58.2818 237.787C56.5555 245.728 61.2951 250.351 69.1736 250.938C76.3293 251.472 80.0017 246.913 81.9166 244.536L81.9172 244.535Z" fill="#4B5460"/>
</svg>
