<svg width="722" height="920" viewBox="0 0 722 920" fill="none" xmlns="http://www.w3.org/2000/svg">
<path d="M696.151 2.80371C682.394 2.80371 671.229 13.9687 671.229 27.7256C671.229 41.4825 682.394 52.6475 696.151 52.6475C709.908 52.6475 721.073 41.4825 721.073 27.7256C721.073 13.9687 709.908 2.80371 696.151 2.80371ZM51.5052 158.981C26.7162 158.981 6.64583 179.051 6.64583 203.84C6.64583 228.629 26.7162 248.7 51.5052 248.7C76.2942 248.7 96.3646 228.629 96.3646 203.84C96.3646 179.051 76.2942 158.981 51.5052 158.981ZM29.9062 860.116C13.3914 860.116 0 873.508 0 890.022C0 906.537 13.3914 919.929 29.9062 919.929C46.4211 919.929 59.8125 906.537 59.8125 890.022C59.8125 873.508 46.4211 860.116 29.9062 860.116ZM445.271 697.293C441.616 697.293 438.625 700.284 438.625 703.939C438.625 707.594 441.616 710.585 445.271 710.585C448.926 710.585 451.917 707.594 451.917 703.939C451.917 700.284 448.926 697.293 445.271 697.293Z" fill="#404853"/>
<path d="M315.935 205.705C346.931 205.705 372.059 180.578 372.059 149.581C372.059 118.585 346.931 93.457 315.935 93.457C284.938 93.457 259.811 118.585 259.811 149.581C259.811 180.578 284.938 205.705 315.935 205.705Z" fill="#E4B22D"/>
<path d="M315.787 196.573C341.626 196.573 362.573 175.626 362.573 149.787C362.573 123.947 341.626 103 315.787 103C289.947 103 269 123.947 269 149.787C269 175.626 289.947 196.573 315.787 196.573Z" fill="#D4A527"/>
<path d="M321.972 144.49C319.71 147.21 315.611 156.052 313.604 160.447C320.094 153.585 323.894 156.148 332.475 160.447C341.535 164.987 352.421 160.947 354.12 153.378C356.468 142.919 350.022 136.83 339.306 136.057C329.573 135.354 324.578 141.358 321.973 144.489L321.972 144.49Z" fill="#AD733B"/>
<path d="M309.629 153.865C311.892 151.145 315.99 142.304 317.997 137.908C311.508 144.77 307.708 142.207 299.127 137.908C290.066 133.369 279.181 137.408 277.481 144.977C275.133 155.436 281.58 161.525 292.296 162.299C302.029 163.001 307.024 156.997 309.628 153.866L309.629 153.865Z" fill="#AD733B"/>
<path d="M256.122 193.556C287.119 193.556 312.246 168.428 312.246 137.432C312.246 106.435 287.119 81.3076 256.122 81.3076C225.126 81.3076 199.998 106.435 199.998 137.432C199.998 168.428 225.126 193.556 256.122 193.556Z" fill="#E4B22D"/>
<path d="M256.13 184.227C281.97 184.227 302.917 163.28 302.917 137.44C302.917 111.6 281.97 90.6533 256.13 90.6533C230.291 90.6533 209.344 111.6 209.344 137.44C209.344 163.28 230.291 184.227 256.13 184.227Z" fill="#D4A527"/>
<path d="M484.589 433.146C502.5 395.797 511.87 354.825 511.87 312.558V203.466C511.87 194.86 506.122 187.151 497.914 184.725L359.581 143.787C355.992 142.723 352.171 142.723 348.582 143.787L210.216 184.725C202.008 187.151 196.26 194.86 196.26 203.466V312.591C196.26 370.244 213.639 425.537 246.535 472.523C272.022 508.942 306.115 539.014 345.06 559.484C347.12 560.547 349.313 561.245 351.54 561.544C368.254 497.544 419.726 447.667 484.589 433.146V433.146Z" fill="#23242D"/>
<path d="M261.871 128.135C259.608 130.855 255.51 139.696 253.503 144.092C259.992 137.23 263.792 139.793 272.373 144.092C281.434 148.631 292.319 144.592 294.019 137.023C296.367 126.564 289.92 120.475 279.204 119.701C269.471 118.999 264.476 125.003 261.872 128.134L261.871 128.135Z" fill="#AD733B"/>
<path d="M249.528 137.51C251.79 134.79 255.889 125.948 257.896 121.553C251.406 128.415 247.606 125.852 239.025 121.553C229.965 117.013 219.079 121.053 217.38 128.622C215.032 139.081 221.478 145.17 232.194 145.943C241.927 146.646 246.922 140.642 249.527 137.511L249.528 137.51Z" fill="#AD733B"/>
<path d="M482.762 420.079C501.868 381.733 511.87 339.432 511.87 295.769V186.644C511.87 178.038 506.122 170.329 497.914 167.903L359.581 126.964C355.992 125.901 352.171 125.901 348.582 126.964L210.216 167.903C202.008 170.329 196.26 178.038 196.26 186.644V295.769C196.26 353.421 213.639 408.715 246.535 455.701C272.022 492.12 306.115 522.192 345.06 542.661C347.386 543.891 349.911 544.589 352.47 544.788C369.882 482.949 419.892 434.833 482.762 420.079V420.079Z" fill="#C9292C"/>
<path d="M559.812 561.677L514.62 605.572L493.553 585.07L478.5 599.724L514.62 634.814L574.865 576.331L559.812 561.677V561.677Z" fill="#606B78"/>
<path d="M526.578 481.304C462.446 481.304 410.276 533.473 410.276 597.606C410.276 661.738 462.446 713.908 526.578 713.908C590.711 713.908 642.881 661.738 642.881 597.606C642.881 533.473 590.711 481.304 526.578 481.304ZM526.578 684.002C478.728 684.002 440.183 645.456 440.183 597.606C440.183 549.756 478.728 511.21 526.578 511.21C574.428 511.21 612.974 549.756 612.974 597.606C612.974 645.456 574.428 684.002 526.578 684.002Z" fill="#606B78"/>
<path d="M612.725 71.775L383.111 3.9875C365.168 -1.32917 346.559 -1.32917 328.616 3.9875L99.0021 71.775C82.0553 76.7594 70.0928 92.7094 70.0928 110.321V301.056C70.0928 389.446 96.3438 474.513 145.855 546.952C194.37 617.73 261.493 672.226 340.578 704.458C345.563 706.452 350.547 707.449 355.864 707.449C360.848 707.449 366.165 706.452 371.149 704.458C398.729 693.16 424.98 679.204 449.57 662.59C442.924 653.95 437.94 644.314 434.284 634.013C411.024 649.963 385.77 663.586 359.187 674.552C357.193 675.217 354.867 675.217 353.205 674.552C280.101 644.646 217.63 594.138 172.771 528.676C126.582 461.885 102.325 383.132 102.325 301.389V110.653C102.325 106.998 104.651 104.007 107.974 103.01L337.588 35.2229C343.569 33.5615 349.55 32.5646 355.864 32.5646C361.845 32.5646 368.158 33.5615 374.14 35.2229L603.753 103.01C607.076 104.007 609.402 107.33 609.402 110.653V301.389C609.402 374.825 589.797 445.935 552.248 508.406C562.881 511.397 572.85 515.717 581.822 521.698C621.032 454.907 641.634 379.477 641.634 301.056V110.653C641.634 92.7094 629.672 76.7594 612.725 71.775V71.775Z" fill="#606B78"/>
<circle cx="355" cy="316" r="108" fill="black"/>
<path d="M369.266 304.267C363.822 311.025 353.96 332.996 349.132 343.919C364.746 326.866 373.889 333.235 394.536 343.919C416.337 355.199 442.529 345.161 446.618 326.353C452.268 300.363 436.757 285.233 410.972 283.311C387.554 281.565 375.535 296.484 369.268 304.264L369.266 304.267Z" fill="url(#paint0_linear)"/>
<path d="M340.735 327.563C346.179 320.805 356.041 298.835 360.869 287.911C345.255 304.964 336.112 298.595 315.465 287.911C293.664 276.631 267.472 286.669 263.383 305.477C257.733 331.467 273.244 346.597 299.029 348.519C322.447 350.265 334.466 335.346 340.733 327.566L340.735 327.563Z" fill="url(#paint1_linear)"/>
<defs>
<linearGradient id="paint0_linear" x1="374.813" y1="315.837" x2="440.968" y2="338.539" gradientUnits="userSpaceOnUse">
<stop stop-color="#CCA350"/>
<stop offset="1" stop-color="#8F6812"/>
</linearGradient>
<linearGradient id="paint1_linear" x1="340.706" y1="301.764" x2="262.224" y2="306.078" gradientUnits="userSpaceOnUse">
<stop stop-color="#DAB057"/>
<stop offset="1" stop-color="#88611F"/>
</linearGradient>
</defs>
</svg>
