<svg width="1600" height="665" viewBox="0 0 1600 665" fill="none" xmlns="http://www.w3.org/2000/svg">
<path d="M741.72 356.134C703.97 403.007 635.593 555.38 602.117 631.136C710.381 512.871 773.772 557.042 916.936 631.136C1068.09 709.367 1249.7 639.749 1278.05 509.308C1317.23 329.061 1209.67 224.129 1030.9 210.796C868.521 198.686 785.187 302.161 741.735 356.115L741.72 356.134Z" fill="#C9D0DF"/>
<path d="M544.448 517.703C582.198 470.83 650.575 318.457 684.051 242.701C575.787 360.966 512.396 316.795 369.232 242.701C218.074 164.47 36.4656 234.088 8.11612 364.529C-31.0582 544.776 76.493 649.707 255.27 663.041C417.647 675.151 500.981 571.676 544.433 517.722L544.448 517.703Z" fill="#C9D0DF"/>
<path d="M1369.94 421.241L1411.79 405.461L1401.83 358.495L1413.2 351.371C1420.74 346.631 1427.77 341.123 1434.18 334.934L1443.8 325.646L1487.13 346.478L1507.57 310.259L1467.18 284.039L1470.15 271.006C1472.13 262.322 1473.21 253.454 1473.35 244.547L1473.48 231.146L1518.79 215.283L1507.54 175.27L1460.42 185.18L1453.27 173.831C1448.53 166.299 1443.02 159.284 1436.81 152.901L1427.5 143.295L1448.35 99.9918L1412.19 79.5054L1385.88 119.835L1372.8 116.838C1364.1 114.856 1355.21 113.778 1346.29 113.621L1332.88 113.496L1316.94 68.1834L1276.79 79.364L1286.75 126.33L1275.39 133.433C1267.84 138.172 1260.81 143.68 1254.41 149.87L1239.11 166.324L1214.36 128.967C1216.29 127.384 1241.62 110.125 1243.61 108.64L1231.58 52.0707L1341.22 21.5685L1360.43 76.1368C1362.9 76.3915 1365.39 76.6973 1367.88 77.0465L1399.49 28.6127L1498.73 84.3499L1473.62 136.434C1475.23 138.372 1476.79 140.324 1478.29 142.334L1535.12 130.244L1565.83 239.587L1511 258.629C1510.77 261.115 1510.44 263.586 1510.1 266.053L1558.81 297.722L1503.03 396.615L1450.73 371.541C1448.82 373.128 1446.85 374.681 1444.84 376.162L1456.85 432.728L1381.97 456.223L1369.94 421.241ZM1305.36 311.234C1287.97 301.531 1274.86 285.653 1268.62 266.746C1262.38 247.838 1263.48 227.28 1271.69 209.143C1279.89 191.005 1294.62 176.611 1312.94 168.811C1331.26 161.011 1351.85 160.374 1370.62 167.026C1389.39 173.678 1404.98 187.134 1414.3 204.73C1423.62 222.325 1425.99 242.776 1420.95 262.032C1415.9 281.289 1403.8 297.947 1387.04 308.707C1370.29 319.467 1350.1 323.545 1330.47 320.132C1321.66 318.605 1313.17 315.597 1305.36 311.234ZM1308.63 222.328C1304.35 229.88 1302.58 238.599 1303.59 247.223C1304.6 255.846 1308.32 263.925 1314.23 270.291C1320.13 276.658 1327.91 280.98 1336.44 282.633C1344.97 284.285 1353.8 283.183 1361.65 279.484C1369.51 275.786 1375.99 269.683 1380.14 262.061C1384.3 254.438 1385.92 245.691 1384.77 237.086C1383.62 228.481 1379.76 220.464 1373.75 214.196C1367.74 207.929 1359.89 203.736 1351.34 202.224C1343.01 200.733 1334.43 201.867 1326.77 205.469C1319.12 209.071 1312.78 214.963 1308.63 222.328Z" fill="#C9D0DF"/>
</svg>
