<svg width="841" height="841" viewBox="0 0 841 841" fill="none" xmlns="http://www.w3.org/2000/svg">
<circle cx="420.5" cy="420.5" r="420.5" fill="#CAD6E7"/>
<path d="M476.377 375.145C455.183 401.461 416.795 487.008 398 529.539C458.782 463.142 494.372 487.941 574.749 529.539C659.613 573.461 761.573 534.375 777.49 461.142C799.483 359.946 739.101 301.034 638.73 293.548C547.567 286.749 500.781 344.843 476.386 375.135L476.377 375.145Z" fill="#DBE5F1"/>
<path d="M365.623 465.855C386.817 439.539 425.205 353.992 444 311.461C383.218 377.858 347.628 353.059 267.251 311.461C182.387 267.539 80.4267 306.625 64.5105 379.858C42.5169 481.054 102.899 539.966 203.27 547.452C294.433 554.251 341.219 496.157 365.614 465.865L365.623 465.855Z" fill="#EAF1FA"/>
</svg>
